<svg xmlns="http://www.w3.org/2000/svg" width="2000" height="2000"><path d="m1329 439 2.845 1.299c12.77 5.864 25.118 12.357 37.398 19.182a633 633 0 0 0 8.191 4.421c19.486 10.394 38.077 22.192 56.343 34.59q3.545 2.401 7.098 4.789c9.298 6.283 18.306 12.782 27.125 19.719q1.61 1.23 3.227 2.453c6.736 5.105 13.249 10.411 19.668 15.91 2.758 2.358 5.579 4.626 8.417 6.887 11.81 9.667 22.578 20.537 33.395 31.282a1816 1816 0 0 0 3.416 3.382c6.364 6.294 12.372 12.665 17.957 19.678 2.033 2.55 4.155 4.996 6.316 7.436 27.205 30.846 52.038 71.348 49.772 113.869-1.877 23.438-15.102 41.498-32.164 56.662-5.348 4.346-11.07 7.953-17.004 11.441l-3.418 2.023c-17.715 10.113-38.363 17.949-58.582 20.977-.199 3.52-.382 7.041-.562 10.562l-.17 3.002c-.266 5.337-.093 10.142.732 15.436 3.322 60.785-10.977 133.919-50 182l-1.594 1.972a857 857 0 0 1-19.094 22.778l-1.601 1.843c-2.107 2.42-4.214 4.84-6.329 7.254q-2.323 2.664-4.632 5.341l-1.413 1.602c-4.181 4.87-4.463 8.23-4.451 14.539l.001 3.882.015 4.18.005 4.287q.006 5.632.024 11.265.015 5.751.02 11.502.017 11.278.049 22.555l3.289.516q2.169.365 4.336.734l2.16.332c5.998 1.046 10.309 3.108 14.277 7.918 3.903 3.322 7.842 4.158 12.715 5.559 9.281 2.711 13.434 6.458 18.223 14.941 6.317 11.975 11.459 24.553 16.663 37.041 5.706 14.769 5.706 14.769 16.782 25.256 9.492 6.328 19.461 17.517 25.071 27.363 4.028 3.794 8.899 3.976 14.234 4.84q3.408.62 6.812 1.258l3.348.626c16.442 3.279 29.594 10.602 42.938 20.423 22.566 16.573 43.478 29.193 71.484 33.033l3.658.512a4609 4609 0 0 0 27.191 3.679l6.836.913 2.312.31 4.656.623q5.823.78 11.648 1.542c17.412 2.279 34.708 4.851 51.945 8.222l2.268.442c50.487 9.925 50.487 9.925 63.279 27.979 2.356 3.776 4.185 7.72 6.063 11.75 5.283 11.039 13.882 18.571 23.175 26.262 35.294 29.367 43.761 90.772 47.833 134.008q.294 3.362.57 6.727l.19 2.294c.303 3.708.585 7.415.83 11.127 1.474 20.612 10.973 35.772 23.214 51.77l3.246 4.273c6.224 8.191 6.224 8.191 12.59 16.27 26.496 33.111 27.803 84.081 31.289 124.707l.244 2.783c2.596 29.958 3.681 60.009 4.123 90.069l.051 3.393c.153 10.36.295 20.719.411 31.079.439 38.395 3.241 75.866 8.742 113.853.304 2.573.304 2.573.304 6.573H682c.571-12.564 1.15-25.096 1.973-37.641 1.871-29.476 3.428-58.878 3.402-88.421l.005-3.751q-.003-5.205-.044-10.41l-.007-3.067c-.067-4.961-.373-9.062-2.329-13.71-6.139-2.24-12.116-3.726-18.566-4.727l-2.785-.449c-3.069-.492-6.14-.971-9.211-1.449l-3.329-.523c-81.809-12.854-164.069-23.038-246.218-33.454l-2.274-.288a37840 37840 0 0 0-46.199-5.831c-49.148-6.171-49.148-6.171-70.851-9.157q-2.625-.361-5.248-.717c-27.922-3.798-55.452-9.9-82.319-18.405l-3.292-1.034c-45.176-14.377-93.086-38.966-117.173-81.845-17.053-34.671-.739-75.541 9.653-110.121l.75-2.507c5.599-18.634 11.864-37.052 18.062-55.493l1.494-4.447 2.19-6.516 2.175-6.475.726-2.159c26.899-80.074 49.945-161.113 72.321-242.549A9125 9125 0 0 1 194 1222l.759-2.726q2.225-7.981 4.493-15.951.693-2.44 1.375-4.882c6.721-24.02 6.721-24.02 14.373-28.441 6.923-3.194 13.707-4.932 21.188-6.25 27.196-5.149 54.066-11.531 78.05-25.722 23.257-13.571 51.574-20.463 77.762-26.028a209 209 0 0 0 7.143-15.407c7.34-17.611 15.746-31.811 27.857-46.593l1.873-2.294q4.483-5.482 9.006-10.933a718 718 0 0 0 9.269-11.457c2.828-3.537 5.702-7.037 8.575-10.539q2.235-2.725 4.461-5.461a822 822 0 0 1 12.191-14.628 371 371 0 0 0 11-13.563c4.405-5.683 9.043-11.116 13.786-16.517a274 274 0 0 0 10.401-12.67c5.094-6.579 10.456-12.892 15.909-19.175 2.581-2.976 5.15-5.962 7.717-8.951l1.525-1.775a505 505 0 0 0 8.725-10.475c5.147-6.334 10.513-12.472 15.877-18.623a1025 1025 0 0 0 4.915-5.705c6.163-7.184 12.456-14.211 18.959-21.09 2.904-3.075 5.703-6.173 8.373-9.456 4.227-4.905 9.554-8.585 14.73-12.419 12.724-9.452 24.959-19.513 37.173-29.609 7.421-6.131 14.882-12.195 22.497-18.083q2.242-1.735 4.478-3.478C697.115 770.783 697.115 770.783 706 770c6.565 2.095 10.887 7.462 14.332 13.23C723 788.406 723 788.406 723 791c3.721-2.058 6.521-4.303 9.477-7.352l2.516-2.567 2.632-2.706c6.834-6.932 13.588-13.517 21.375-19.375l1.941-1.609C769.05 750.822 780.221 744.02 791 745c5.855 1.722 9.607 6.095 13 11 4 8.035 4 8.035 4 12l2.137-2.188c8.997-8.988 20.391-20.014 33.801-20.187 5.185.115 8.264.577 12.062 4.375 3.22 5.085 4.998 10.097 5.316 16.109l.127 2.286.119 2.355.131 2.402q.158 2.924.307 5.848l2.281-.488c5.167-.973 10.101-1.258 14.719 1.488 4.69 5.081 5.176 10.35 5 17-1.086 11.987-5.012 21.649-11 32l-1.17 2.032c-5.481 9.391-11.696 18.015-18.572 26.426-1.816 2.226-3.597 4.48-5.383 6.73Q845.939 866.595 844 869l-2.105 2.637c-4.899 6.077-10.029 11.866-15.333 17.586a314 314 0 0 0-6.187 6.902c-6.43 7.396-13.04 14.608-19.75 21.75L793 926l-1.654 1.763C783.027 936.652 776.142 944.897 771 956l1 1 2.57-1.574c12.304-7.385 24.648-13.601 39.43-11.426 6.849 2.101 12.291 5.822 16 12 3.005 6.282 4.84 12.037 4 19-2.105 4.358-5.164 7.022-8.812 10.062-7.035 6.134-11.835 13.534-13.188 22.938-.109 1.89-.215 3.78-.289 5.671-.548 13.25-3.172 19.924-12.711 29.329l-2.25 2.246c-14.591 13.827-32.736 23.57-50.762 32.149-5.043 2.709-8.404 5.792-11.547 10.562l-1.92 2.873-1.959 2.982C714.75 1117.746 694.85 1128.365 668 1137l-2.266.753c-25.197 8.339-51.928 12.621-78.422 13.747-14.954.669-29.132 3.941-40.312 14.5l.105 1.695c.592 17.527-6.573 33.563-14.417 48.805-12.745 24.931-19.988 51.873-26.864 78.895l-.845 3.306a2179 2179 0 0 0-4.111 16.336c-2.927 11.663-6.443 22.701-11.167 33.765-3.98 9.457-4.733 19.312-5.662 29.415-1.344 14.458-3.688 27.927-8.039 41.783l-.781 2.506c-8.022 25.239-19.38 49.817-31.219 73.494 41.22 5.648 87.371-10.292 127.256-19.32q5.042-1.141 10.085-2.279a4607 4607 0 0 0 12.633-2.872c41.44-9.43 41.44-9.43 52.436-3.775a129 129 0 0 1 5.285 4.379c2.994 2.425 5.238 3.142 9.055 3.23 6.506-1.05 11.554-4.54 16.188-9.051 7.41-6.862 20.041-5.831 29.632-6.435 7.444-.555 14.369-1.261 20.2-6.244L729 1451c8.61-9.547 17.919-15.597 29-22 19.054-11.095 33.147-25.115 46.344-42.801 8.166-10.326 20.568-18.187 33.656-20.199 5.552-.329 10.994-.472 16.375 1.062 7.161 1.852 12.202-1.093 18.375-4.437l2.521-1.341c5.738-3.093 11.277-6.438 16.791-9.909 11.501-7.19 24.169-14.319 37.938-15.375l3.812-.312c8.87.273 17.791 2.744 25.809 6.445 5.317 1.938 10.905 1.991 16.508 1.981h2.042q3.303-.003 6.606-.016l4.611-.005q6.039-.006 12.078-.024 6.174-.015 12.348-.02 12.093-.017 24.186-.049c6.205-8.532 12.148-17.14 17.688-26.125l1.853-2.973q1.844-2.97 3.639-5.97c1.82-2.932 1.82-2.932 3.812-5.6 6.182-8.827 5.953-17.287 5.701-27.675a392 392 0 0 1-.088-8.464c-.135-16.58-.543-34.6-12.23-47.505-8.359-7.695-19.067-9.799-29.766-12.508-14.082-3.576-23.831-8.215-32.609-20.18-3.959-6.786-4.932-14.447-6.184-22.082-2.253-13.728-5.126-27.295-8.48-40.793l-.729-2.94a2093 2093 0 0 0-3.685-14.606c-6.192-24.388-7.334-47.362-7.128-72.397.031-4.205.044-8.409.06-12.614q.048-12.284.146-24.568l-2.507-1.031-3.283-1.358-3.256-1.344c-8.799-3.774-15.951-8.928-21.079-17.048-4.074-10.331.074-22.583 4.125-32.219l.829-1.975c3.847-8.963 8.462-17.41 13.359-25.837 8.481-14.603 13.128-27.245 13.374-44.313l.151-3.129c.073-5.494-.214-8.848-3.983-13.004l-1.924-1.896c-2.769-2.831-4.35-6.057-6.056-9.596l-.984-1.898c-4.846-9.81-6.264-19.824-6.141-30.664l-.035-3.069c.032-8.501 1.536-16.358 3.41-24.619l-2.114.013q-9.95.061-19.899.091-5.113.014-10.226.047c-3.935.026-7.869.036-11.804.044l-3.641.032c-21.171.002-21.171.002-27.004-4.602-4.73-5.37-4.866-9.841-4.75-16.891 1.478-12.609 11.185-22.061 19.234-31.163 2.258-2.578 4.469-5.195 6.678-7.815 1.321-1.52 2.724-2.968 4.139-4.401 7.6-8.787 5.816-19.027 5.469-30.015-.264-10.254 1.251-20.247 2.918-30.34l6-4c-1.622-4.02-4.472-6.756-7.438-9.812-31.326-33.208-49.109-78.456-47.874-124.063 1.545-35.634 17.64-67.729 43.277-92.336C976.461 369.455 1068.836 366.537 1329 439"/><path fill="#fdfdfd" d="M901 34h54c10.372 13.829 10.372 13.829 10.16 21.535l.019 2.56q.002 2.648-.061 5.296c-.056 2.674-.02 5.336.025 8.009.003 9.885-.755 16.234-7.43 23.895L956 97c1.186 3.707 2.482 7.233 4.164 10.742l1.211 2.539 1.25 2.594 1.273 2.664q1.546 3.233 3.102 6.461l-1 1h-25c-4.812-9.187-4.812-9.187-6.312-12.055-2.127-4.051-4.267-8.06-6.688-11.945h-1l-.076 2.095q-.175 4.672-.362 9.343l-.119 3.298-.127 3.135-.111 2.904C926 122 926 122 925 123h-24c-4.611-4.611-1.045-28.295-1.052-34.978q-.007-7.889-.023-15.776-.016-7.606-.02-15.211-.003-2.908-.011-5.817-.01-4.059-.008-8.118l-.01-2.454c.01-5.532.01-5.532 1.124-6.646m26 26-1 1v10l1 1h10l1-1V61l-1-1z"/><path fill="#f8f8f8" d="M1030 49h29c2.399 5.998 4.71 11.836 6.75 17.938l.668 1.955c.946 2.835 1.582 5.095 1.582 8.107h2l.48-1.879a308 308 0 0 1 5.082-17.183l.636-1.985c.959-2.89 1.619-4.77 3.802-6.953h28c1 1 1 1 1.12 3.854l-.006 3.869v2.128q-.004 3.5-.016 6.997l-.005 4.838a6783 6783 0 0 1-.024 12.759q-.015 6.505-.02 13.01c-.032 25.528-.032 25.528-1.049 26.545h-20l-1-1V96h-2l-.332 1.723c-2.483 12.092-2.483 12.092-5.668 15.277h-20c-2.101-3.502-3.48-5.907-4.688-9.625l-.761-2.289C1053 99 1053 99 1053 96h-2v26l-1 1h-20c-3.854-3.854-1.045-23.31-1.052-29.111q-.007-6.526-.023-13.052-.016-6.293-.02-12.585-.003-2.406-.011-4.812-.01-3.358-.008-6.717l-.006-3.869C1029 50 1029 50 1030 49"/><path fill="#fafafa" d="M1174 49h28c4.5 10.125 4.5 10.125 5.703 13.816l.781 2.373.766 2.373.812 2.479q.975 2.978 1.938 5.959l2 1 .809-3.906c1.107-4.981 2.611-9.767 4.253-14.594l.815-2.453c1.989-5.913 1.989-5.913 3.123-7.047h28c1 1 1 1 1.12 3.854l-.006 3.869v2.128q-.004 3.5-.016 6.997l-.005 4.838a6783 6783 0 0 1-.024 12.759q-.015 6.505-.02 13.01c-.032 25.528-.032 25.528-1.049 26.545h-20l-1-1V98h-2l-.332 1.758-.48 2.367-.458 2.32C1226 107 1226 107 1223 113h-21c-4.429-10.571-4.429-10.571-5-16h-2v25l-1 1h-20c-3.854-3.854-1.045-23.31-1.052-29.111q-.007-6.526-.023-13.052-.016-6.293-.02-12.585-.003-2.406-.011-4.812-.01-3.358-.008-6.717l-.006-3.869C1173 50 1173 50 1174 49"/><path fill="#fdfdfd" d="M430 34h62c1.552 4.657.119 8.825-.812 13.562l-.542 2.944-.541 2.81-.495 2.577C489 58 489 58 487 60c-3.073.319-3.073.319-6.977.414l-2.076.059c-2.191.06-4.381.106-6.572.152q-2.226.057-4.453.117-5.461.142-10.922.258v4l30 1c-1.133 12.458-1.133 12.458-2.5 18.625l-.781 3.602C482 91 482 91 481 92c-1.852.158-3.709.251-5.566.316l-3.409.127-3.587.119A3304 3304 0 0 1 456 93l-.076 2.646q-.143 4.845-.296 9.689-.065 2.1-.125 4.199a1724 1724 0 0 1-.187 6.025l-.111 3.665C455 122 455 122 454 123h-24c-4.611-4.611-1.045-28.295-1.052-34.978q-.007-7.889-.023-15.776-.016-7.606-.02-15.211-.003-2.908-.011-5.817-.01-4.059-.008-8.118l-.01-2.454c.01-5.532.01-5.532 1.124-6.646"/><path fill="#fcfcfc" d="M1259 49h44c8.132 9.293 8.132 9.293 8.098 14.133l-.01 2.441-.026 2.551-.013 2.574c-.035 6.287-.035 6.287-6.049 12.301 1.144 2.479 2.297 4.366 4.035 6.504 2.874 4.299 2.663 8.784 2.653 13.808l.123 2.725c.043 8.506-1.909 9.375-7.811 16.963h-45c-3.854-3.854-1.045-23.31-1.052-29.111q-.007-6.526-.023-13.052-.016-6.293-.02-12.585-.003-2.406-.011-4.812-.01-3.358-.008-6.717l-.006-3.869C1258 50 1258 50 1259 49m22 19-1 1v6l1 1h8l1-1v-6l-1-1zm0 27-1 1v7l1 1h8l1-1v-7l-1-1z"/><path fill="#f7f7f7" d="M556 49h45c9.014 11.267 9.014 11.267 9.027 17.879l.016 2.112q.002 2.184-.055 4.368c-.051 2.206-.021 4.401.018 6.608 0 7.977-.836 13.566-6.508 19.642L602 101c1.494 4.843 3.45 9.314 5.625 13.875l.984 2.086q1.192 2.521 2.391 5.039l-1 1h-21l-2.117-4.121-2.758-5.317-1.395-2.72-1.347-2.588-1.238-2.396c-1.015-2.013-1.015-2.013-3.145-2.858v19l-1 1h-20c-3.854-3.854-1.045-23.31-1.052-29.111q-.007-6.526-.023-13.052-.016-6.293-.02-12.585-.003-2.406-.011-4.812-.01-3.358-.008-6.717l-.006-3.869C555 50 555 50 556 49m22 22-1 1v8l1 1h8l1-1v-8l-1-1z"/><path fill="#fafafa" d="M1378 49h44c9.215 11.519 9.215 11.519 8.992 18.133l.009 2.186a175 175 0 0 1-.068 4.522c-.058 2.289-.041 4.569-.015 6.858-.025 7.473-.29 13.396-5.636 19.144L1424 101c.609 4.514 2.452 8.154 4.562 12.125C1432 119.596 1432 119.596 1432 123h-21c-5.692-9.108-5.692-9.108-7.812-13.375l-1.27-2.523C1401 105 1401 105 1401 103h-2v19l-1 1h-20c-3.854-3.854-1.045-23.31-1.052-29.111q-.007-6.526-.023-13.052-.016-6.293-.02-12.585-.003-2.406-.011-4.812-.01-3.358-.008-6.717l-.006-3.869C1377 50 1377 50 1378 49m22 22-1 1v8l1 1h7l1-1v-8l-1-1zM795 49h44c9.215 11.519 9.215 11.519 8.992 18.133l.009 2.186a175 175 0 0 1-.068 4.522c-.058 2.289-.041 4.569-.015 6.858-.025 7.473-.29 13.396-5.636 19.144L841 101c.609 4.514 2.452 8.154 4.562 12.125C849 119.596 849 119.596 849 123h-21c-5.692-9.108-5.692-9.108-7.812-13.375l-1.27-2.523C818 105 818 105 818 103h-2v19l-1 1h-20c-3.854-3.854-1.045-23.31-1.052-29.111q-.007-6.526-.023-13.052-.016-6.293-.02-12.585-.003-2.406-.011-4.812-.01-3.358-.008-6.717l-.006-3.869C794 50 794 50 795 49m22 22-1 1v8l1 1h7l1-1v-8l-1-1z"/><path fill="#fcfcfc" d="M1495 49h44c8.107 9.266 8.107 9.266 8.225 15.133l.068 3.248q.107 7.387.167 14.774.04 3.89.123 7.777c.079 3.743.112 7.484.136 11.228l.1 3.486-.008 3.315.038 2.882C1547 114 1547 114 1540 123h-45c-3.854-3.854-1.045-23.31-1.052-29.111q-.007-6.526-.023-13.052-.016-6.293-.02-12.585-.003-2.406-.011-4.812-.01-3.358-.008-6.717l-.006-3.869C1494 50 1494 50 1495 49m22 22-1 1v29l1 1h8c2.127-2.127 1.061-8.047 1.068-11.078.805-10.673.805-10.673-2.068-19.922z"/><path fill="#f9f9f9" d="M504 49h37c8.107 9.266 8.107 9.266 8.225 15.133l.068 3.248q.107 7.387.167 14.774.04 3.89.123 7.777c.079 3.743.112 7.484.136 11.228l.1 3.486-.008 3.315.038 2.882C549 114 549 114 542 123h-39c-7.877-10.128-7.877-10.128-7.922-14.912l-.076-3.237.033-3.41-.027-3.588q-.014-3.741.024-7.481c.03-3.796-.02-7.586-.077-11.382q.002-3.65.018-7.299l-.059-3.403c.2-9.756 2.198-10.678 9.086-19.288m15 22-1 1v29l1 1h7l1-1V72l-1-1z"/><path fill="#f6f6f6" d="M735 49h52c1.276 2.551.848 3.556.258 6.316l-.543 2.565-.59 2.681-.566 2.694c-1.422 6.607-1.422 6.607-2.559 7.744-1.925.158-3.855.251-5.785.316l-3.545.127-3.732.119-3.745.131q-4.596.16-9.193.307v3l2.187.076q4.875.175 9.751.362l3.443.119 3.271.127 3.031.111C781 76 781 76 782 77c-1.379 17.379-1.379 17.379-4 20a80 80 0 0 1-4.691.316l-2.862.127-3.009.119A2428 2428 0 0 1 757 98v3l19 1c1.124 4.495.521 7.764-.375 12.188l-.422 2.232c-1.06 5.437-1.06 5.437-2.203 6.58h-38c-3.854-3.854-1.045-23.31-1.052-29.111q-.007-6.526-.023-13.052-.016-6.293-.02-12.585-.003-2.406-.011-4.812-.01-3.358-.008-6.717l-.006-3.869C734 50 734 50 735 49"/><path fill="#fafafa" d="M971 49h51l1 1c-1.3 18.3-1.3 18.3-4 21-1.925.158-3.855.251-5.785.316l-3.545.127-3.732.119-3.745.131q-4.596.16-9.193.307v3l24 1c1.124 4.495.521 7.764-.375 12.188l-.422 2.232c-1.06 5.437-1.06 5.437-2.203 6.58a80 80 0 0 1-4.691.316l-2.862.127-3.009.119A2428 2428 0 0 1 993 98v3l19 1c1.314 3.943.463 7.095-.312 11.062l-.397 2.221c-1.039 5.465-1.039 5.465-3.291 7.717h-37c-3.854-3.854-1.045-23.31-1.052-29.111q-.007-6.526-.023-13.052-.016-6.293-.02-12.585-.003-2.406-.011-4.812-.01-3.358-.008-6.717l-.006-3.869C970 50 970 50 971 49m-357 0h51l1 1c-1.3 18.3-1.3 18.3-4 21-1.925.158-3.855.251-5.785.316l-3.545.127-3.732.119-3.745.131q-4.596.16-9.193.307v3l24 1c1.124 4.495.521 7.764-.375 12.188l-.422 2.232c-1.06 5.437-1.06 5.437-2.203 6.58a80 80 0 0 1-4.691.316l-2.862.127-3.009.119A2428 2428 0 0 1 636 98v3l19 1c1.314 3.943.463 7.095-.312 11.062l-.397 2.221c-1.039 5.465-1.039 5.465-3.291 7.717h-37c-3.854-3.854-1.045-23.31-1.052-29.111q-.007-6.526-.023-13.052-.016-6.293-.02-12.585-.003-2.406-.011-4.812-.01-3.358-.008-6.717l-.006-3.869C613 50 613 50 614 49"/><path fill="#fbfbfb" d="M1436 49h51c1.117 4.466.558 7.724-.312 12.125l-.397 2.207c-1.035 5.412-1.035 5.412-3.291 7.668-2.522.319-2.522.319-5.664.414l-3.398.117-3.563.094-3.586.117q-4.394.142-8.789.258v3l24 1c1.621 3.241.354 6.508-.312 9.938l-.397 2.208c-.666 3.511-1.286 5.846-3.291 8.854l-20 1v3l3.902.184 5.036.254 2.576.119 2.451.127 2.269.111C1476 102 1476 102 1477 103c-1.379 17.379-1.379 17.379-4 20h-37c-3.854-3.854-1.045-23.31-1.052-29.111q-.007-6.526-.023-13.052-.016-6.293-.02-12.585-.003-2.406-.011-4.812-.01-3.358-.008-6.717l-.006-3.869C1435 50 1435 50 1436 49m-117 0h51c1.117 4.466.558 7.724-.312 12.125l-.397 2.207c-1.035 5.412-1.035 5.412-3.291 7.668-2.522.319-2.522.319-5.664.414l-3.398.117-3.563.094-3.586.117q-4.394.142-8.789.258v3l24 1c1.621 3.241.354 6.508-.312 9.938l-.397 2.208c-.666 3.511-1.286 5.846-3.291 8.854l-20 1v3l3.902.184 5.036.254 2.576.119 2.451.127 2.269.111C1359 102 1359 102 1360 103c-1.379 17.379-1.379 17.379-4 20h-37c-3.854-3.854-1.045-23.31-1.052-29.111q-.007-6.526-.023-13.052-.016-6.293-.02-12.585-.003-2.406-.011-4.812-.01-3.358-.008-6.717l-.006-3.869C1318 50 1318 50 1319 49m-204 0h51c1.117 4.466.558 7.724-.312 12.125l-.397 2.207c-1.035 5.412-1.035 5.412-3.291 7.668-2.522.319-2.522.319-5.664.414l-3.398.117-3.563.094-3.586.117q-4.394.142-8.789.258v3l24 1c1.621 3.241.354 6.508-.312 9.938l-.397 2.208c-.666 3.511-1.286 5.846-3.291 8.854l-20 1v3l3.902.184 5.036.254 2.576.119 2.451.127 2.269.111C1155 102 1155 102 1156 103c-1.379 17.379-1.379 17.379-4 20h-37c-3.854-3.854-1.045-23.31-1.052-29.111q-.007-6.526-.023-13.052-.016-6.293-.02-12.585-.003-2.406-.011-4.812-.01-3.358-.008-6.717l-.006-3.869C1114 50 1114 50 1115 49"/><path fill="#f9f9f9" d="M673 49h20c2.796 2.796 2.888 5.871 3.508 9.633l.395 2.278c.415 2.404.818 4.809 1.222 7.214l.84 4.887Q699.994 79.004 701 85h1l.519-2.982q.958-5.477 1.935-10.952.42-2.37.832-4.741c.395-2.272.8-4.543 1.206-6.813l.367-2.141c.616-3.391 1.198-5.457 3.141-8.371h20c1.492 2.984.617 5.141.044 8.406l-.345 1.991a1439 1439 0 0 1-1.156 6.533l-.797 4.536q-.837 4.76-1.688 9.518c-.725 4.063-1.438 8.127-2.148 12.193q-.822 4.687-1.655 9.373-.398 2.247-.791 4.495-.552 3.146-1.12 6.29l-.641 3.616C719 119 719 119 717 123h-31c-1.645-4.112-2.569-7.389-3.344-11.686l-.361-1.973q-.582-3.206-1.15-6.415l-.806-4.471q-.841-4.672-1.672-9.348c-.711-4-1.434-7.997-2.159-11.995a4039 4039 0 0 1-1.655-9.221q-.395-2.213-.798-4.424-.557-3.083-1.099-6.169l-.634-3.548C672 51 672 51 673 49"/><path fill="#a4a4a4" d="M673 49h19v1q-4.157.252-8.312.5l-2.381.145-2.295.136-2.111.127A101 101 0 0 1 672 51z"/></svg>