<svg id="svg" version="1.1" width="1384" height="542" xmlns="http://www.w3.org/2000/svg" xmlns:xlink="http://www.w3.org/1999/xlink" ><g id="svgg"><path id="path0" d="M206.127 13.931 C 205.565 14.492,205.728 15.739,206.500 16.793 C 208.352 19.321,208.997 20.484,210.067 23.216 C 210.700 24.833,213.976 33.244,217.347 41.908 C 225.078 61.772,224.739 61.117,227.478 61.485 C 231.121 61.973,230.812 62.425,241.434 41.040 C 250.246 23.299,250.782 22.305,252.514 20.459 C 255.781 16.980,255.280 16.471,248.165 16.031 C 242.560 15.684,241.964 15.719,241.402 16.422 C 240.825 17.143,240.955 17.483,242.483 19.269 C 244.449 21.565,244.623 20.905,238.489 34.408 C 232.193 48.266,232.186 48.280,231.959 47.688 C 231.023 45.246,223.121 21.151,223.121 20.738 C 223.121 20.436,223.853 19.421,224.747 18.484 C 226.377 16.775,226.783 15.685,226.061 14.963 C 225.430 14.331,206.696 13.362,206.127 13.931 M304.480 21.905 C 302.651 22.129,292.605 24.944,292.124 25.367 C 291.459 25.952,291.485 26.929,292.202 28.334 C 293.332 30.549,293.278 31.036,290.183 46.676 C 286.863 63.451,287.092 62.646,285.057 64.680 C 281.977 67.757,282.238 67.962,291.618 69.827 C 301.319 71.756,301.920 71.579,299.711 67.439 C 298.530 65.226,298.370 66.426,302.856 43.786 C 307.363 21.043,307.324 21.556,304.480 21.905 M83.041 24.096 C 79.708 26.388,73.370 31.271,73.220 31.662 C 72.878 32.555,73.447 33.546,74.828 34.460 C 77.248 36.061,77.166 35.810,80.486 51.817 C 83.841 67.993,83.856 68.123,82.755 70.577 C 81.144 74.166,81.879 74.442,89.119 72.969 C 94.857 71.801,95.087 71.705,95.087 70.477 C 95.087 69.652,95.100 69.645,95.894 70.056 C 99.248 71.790,104.489 71.072,108.727 68.296 C 118.628 61.812,117.186 44.514,106.328 39.510 C 101.792 37.420,95.249 37.928,91.682 40.649 C 90.369 41.651,90.493 41.970,88.615 32.803 C 86.428 22.132,86.266 21.878,83.041 24.096 M318.208 27.909 C 311.143 29.502,311.291 29.351,312.747 33.479 L 313.392 35.311 309.870 49.960 C 307.933 58.017,306.221 65.067,306.067 65.628 C 305.889 66.272,305.147 67.264,304.049 68.327 C 302.274 70.043,301.823 71.214,302.673 71.894 C 303.446 72.512,318.187 75.811,318.609 75.461 C 319.359 74.838,319.312 73.736,318.459 71.931 C 317.316 69.515,317.105 70.757,322.399 48.739 C 325.022 37.830,327.168 28.589,327.168 28.202 C 327.168 26.233,325.833 26.189,318.208 27.909 M173.782 29.321 C 171.915 29.905,170.056 31.107,169.012 32.405 C 167.957 33.717,167.724 33.509,167.659 31.199 C 167.590 28.738,166.456 28.899,160.372 32.236 C 153.744 35.871,153.579 36.122,156.181 38.567 C 158.342 40.596,158.295 40.417,158.679 48.056 C 159.074 55.897,159.029 56.334,157.649 58.070 C 156.168 59.933,155.956 61.609,157.163 61.912 C 158.171 62.164,172.892 61.293,173.297 60.957 C 174.081 60.306,173.761 59.048,172.429 57.549 C 170.679 55.579,170.615 55.245,170.221 46.098 C 169.757 35.328,170.298 33.526,173.998 33.526 C 176.998 33.526,178.006 35.644,178.901 43.834 C 179.211 46.669,179.614 50.268,179.797 51.832 L 180.130 54.676 179.081 56.746 C 176.914 61.020,177.062 61.106,185.892 60.698 C 195.186 60.268,195.496 60.083,193.045 56.434 C 191.824 54.615,191.307 52.232,190.615 45.231 C 189.670 35.668,186.949 31.043,181.248 29.313 C 179.587 28.809,175.406 28.813,173.782 29.321 M132.803 32.563 C 118.599 34.301,112.265 50.463,121.978 60.186 C 132.660 70.879,152.717 63.733,152.944 49.155 C 153.108 38.572,144.130 31.176,132.803 32.563 M259.827 33.092 C 245.665 36.293,242.801 57.329,255.645 63.810 C 259.395 65.703,264.638 65.977,267.653 64.439 C 269.049 63.727,269.075 63.729,269.075 64.560 C 269.075 65.704,269.731 65.935,275.132 66.687 C 281.930 67.635,282.495 67.337,280.689 63.764 C 279.369 61.154,279.370 61.220,280.613 52.404 C 281.848 43.640,282.141 42.633,283.875 41.186 C 285.401 39.911,285.844 38.454,284.993 37.502 C 284.640 37.106,275.918 34.682,274.847 34.682 C 273.804 34.682,272.832 35.353,272.832 36.073 C 272.832 36.257,272.150 35.890,271.315 35.257 C 268.467 33.097,263.743 32.207,259.827 33.092 M133.483 36.539 C 139.280 39.536,144.177 57.425,140.132 60.829 C 136.503 63.882,131.427 57.614,128.790 46.821 C 127.019 39.574,129.374 34.414,133.483 36.539 M267.622 37.099 C 270.528 39.022,270.857 41.453,269.523 51.140 C 268.351 59.653,268.040 60.662,266.193 61.935 C 262.379 64.564,259.253 58.866,259.220 49.224 C 259.184 38.884,262.685 33.832,267.622 37.099 M96.745 42.808 C 99.700 44.238,103.236 51.352,104.773 58.957 C 106.545 67.730,99.994 71.113,95.534 63.728 C 94.673 62.303,91.814 49.280,91.790 46.676 C 91.758 43.102,93.899 41.430,96.745 42.808 M16.994 45.941 C 10.226 48.439,8.671 49.149,8.671 49.737 C 8.671 50.404,9.342 51.207,10.803 52.286 C 13.662 54.399,13.403 52.841,13.189 66.608 C 12.823 90.091,12.766 91.100,11.653 93.530 C 9.883 97.396,11.138 97.770,17.784 95.354 C 24.735 92.827,25.116 92.179,20.892 90.062 C 18.962 89.095,18.786 88.724,18.786 85.606 L 18.786 83.023 26.448 80.242 L 34.109 77.461 35.190 78.657 C 37.880 81.633,37.969 81.971,36.805 84.804 C 36.012 86.735,36.253 88.174,37.362 88.139 C 38.731 88.096,54.803 81.808,55.115 81.193 C 55.417 80.600,55.486 80.576,55.652 81.007 C 55.954 81.794,56.909 81.632,64.402 79.518 C 73.323 77.000,74.032 76.289,69.922 73.977 C 68.976 73.445,68.009 72.716,67.774 72.357 C 67.007 71.187,63.295 57.394,63.295 55.716 C 63.295 52.092,65.509 51.914,67.643 55.367 C 69.987 59.161,75.729 57.130,75.967 52.423 C 76.440 43.063,64.093 42.191,61.368 51.392 L 60.882 53.035 60.137 50.638 C 58.963 46.855,58.781 46.880,53.316 51.591 C 47.319 56.760,47.019 57.574,50.477 59.301 C 52.337 60.230,52.466 60.503,54.558 67.870 C 56.631 75.173,56.710 75.838,55.794 78.287 C 55.177 79.938,55.130 79.986,54.635 79.490 C 54.351 79.207,53.315 78.546,52.333 78.022 C 50.500 77.046,49.475 76.022,36.420 62.132 C 33.958 59.513,30.827 56.199,29.462 54.769 C 24.441 49.507,24.486 49.593,25.418 46.939 C 26.962 42.548,26.378 42.478,16.994 45.941 M336.987 49.583 C 324.737 51.898,319.694 68.361,328.544 77.144 C 334.688 83.242,343.954 84.063,349.428 78.994 C 352.904 75.776,352.579 72.678,348.954 74.470 C 345.948 75.956,341.018 75.079,338.608 72.630 C 336.725 70.715,335.320 67.441,336.500 67.716 C 343.809 69.420,346.909 69.442,350.403 67.813 C 354.565 65.874,356.455 60.803,354.504 56.815 C 352.003 51.704,343.764 48.303,336.987 49.583 M343.747 53.602 C 347.490 57.071,343.774 64.796,338.563 64.378 C 335.842 64.159,335.611 63.951,335.854 61.939 C 336.654 55.338,340.844 50.911,343.747 53.602 M360.405 57.225 C 359.714 57.916,359.676 58.750,360.260 60.405 C 360.931 62.306,360.819 62.942,358.921 67.981 C 357.946 70.570,356.840 73.663,356.464 74.855 C 353.781 83.362,359.395 90.791,368.569 90.871 C 370.119 90.885,371.387 90.962,371.387 91.042 C 371.387 91.618,368.338 97.205,367.480 98.201 C 363.761 102.520,360.034 100.533,359.470 93.931 C 359.036 88.853,358.224 87.270,355.607 86.407 C 349.476 84.383,347.339 92.574,352.591 97.966 C 361.256 106.863,375.885 105.971,381.411 96.210 C 382.921 93.541,392.566 67.886,392.309 67.218 C 391.813 65.924,379.940 63.078,378.913 64.007 C 378.205 64.648,378.150 65.910,378.757 67.630 C 378.996 68.306,379.191 69.127,379.191 69.455 C 379.191 70.333,374.330 83.185,373.477 84.562 C 371.555 87.665,367.519 88.107,366.439 85.332 C 365.667 83.346,366.003 82.172,371.091 69.083 C 372.850 64.557,374.229 60.695,374.155 60.501 C 373.855 59.720,372.412 59.201,367.075 57.953 C 360.566 56.432,361.136 56.494,360.405 57.225 M25.062 66.392 C 28.171 70.103,30.627 73.227,30.519 73.334 C 30.305 73.549,18.973 77.713,18.862 77.618 C 18.824 77.586,18.731 73.363,18.656 68.233 C 18.533 59.861,18.565 58.945,18.964 59.276 C 19.209 59.479,21.953 62.681,25.062 66.392 M67.682 89.869 C 46.336 95.111,45.992 128.655,67.209 135.978 C 77.187 139.422,88.076 135.075,91.342 126.344 C 93.715 120.002,91.464 116.026,88.029 120.490 C 83.230 126.726,77.047 128.090,71.319 124.176 C 61.357 117.369,59.981 97.037,69.300 94.328 C 72.788 93.314,74.945 94.742,78.758 100.588 C 82.022 105.592,83.748 106.936,86.912 106.936 C 92.257 106.936,94.054 101.219,90.282 96.216 C 86.244 90.860,75.702 87.899,67.682 89.869 M231.691 97.062 C 231.427 97.353,231.018 98.244,230.781 99.041 C 229.765 102.462,227.020 104.545,223.080 104.884 C 220.448 105.110,220.242 105.284,220.236 107.281 C 220.230 108.971,220.899 109.538,222.897 109.538 L 224.277 109.538 224.277 118.338 C 224.277 127.831,224.426 129.203,225.735 131.809 C 230.048 140.394,243.927 138.197,245.657 128.656 C 246.269 125.281,244.803 124.290,242.896 126.790 C 241.598 128.492,239.040 129.146,237.606 128.141 C 236.249 127.191,236.127 126.329,236.127 117.662 L 236.127 109.584 239.871 109.488 C 244.021 109.383,244.189 109.312,244.424 107.556 C 244.740 105.200,244.247 104.913,239.878 104.913 L 236.127 104.913 236.127 101.172 C 236.127 97.634,236.092 97.407,235.485 96.982 C 234.572 96.342,232.299 96.390,231.691 97.062 M107.412 104.793 C 91.367 108.677,91.336 132.383,107.370 136.567 C 114.220 138.355,121.692 135.718,124.243 130.613 C 126.369 126.360,125.325 124.138,122.358 126.598 C 118.108 130.121,111.804 129.419,108.649 125.071 L 107.759 123.844 110.385 123.656 C 121.024 122.893,126.514 117.668,124.105 110.598 C 122.487 105.850,114.508 103.075,107.412 104.793 M133.987 106.888 C 127.220 110.020,126.486 110.960,129.226 112.986 C 131.161 114.417,131.212 114.669,131.213 122.924 C 131.214 130.856,131.209 130.891,129.707 132.619 C 128.566 133.932,128.211 134.928,128.589 135.758 L 128.889 136.416 137.115 136.416 C 142.979 136.416,145.400 136.321,145.546 136.086 C 145.963 135.411,145.687 134.014,144.990 133.272 C 143.034 131.189,143.066 131.384,143.065 121.516 L 143.064 112.541 143.798 111.066 C 145.347 107.959,148.992 107.873,150.540 110.908 C 151.497 112.783,151.734 115.139,151.734 122.750 C 151.734 130.579,151.694 130.848,150.187 133.061 C 149.373 134.257,149.200 135.500,149.769 136.069 C 150.262 136.563,164.766 136.563,165.260 136.069 C 165.873 135.456,165.634 134.303,164.523 132.520 L 163.439 130.780 163.439 121.243 C 163.439 109.960,163.817 108.676,167.139 108.672 C 170.454 108.667,171.392 111.515,171.974 123.358 C 172.333 130.657,172.304 130.925,170.937 132.848 C 169.915 134.285,169.679 135.459,170.289 136.069 C 170.541 136.322,172.712 136.416,178.243 136.416 L 185.851 136.416 186.172 135.711 C 186.433 135.138,186.384 134.798,185.913 133.904 C 185.593 133.299,185.051 132.269,184.707 131.615 C 184.185 130.620,183.992 129.328,183.520 123.667 C 182.526 111.741,181.593 108.950,177.705 106.273 C 172.984 103.021,164.976 104.018,162.119 108.213 C 161.256 109.480,161.218 109.481,160.209 108.265 C 156.437 103.716,148.191 102.977,143.278 106.748 C 141.560 108.066,141.618 108.078,141.618 106.416 C 141.618 103.636,140.916 103.680,133.987 106.888 M200.475 104.793 C 184.507 108.659,184.475 132.394,200.434 136.568 C 207.561 138.433,215.044 135.617,217.559 130.124 C 219.405 126.091,218.276 124.230,215.422 126.600 C 211.325 130.001,205.363 129.480,202.061 125.433 L 200.765 123.844 203.768 123.628 C 212.668 122.988,217.734 119.326,217.698 113.558 C 217.656 106.829,209.407 102.631,200.475 104.793 M258.973 104.912 C 249.054 107.595,244.491 118.576,249.142 128.568 C 253.990 138.984,271.682 140.141,276.334 130.347 C 278.263 126.283,276.929 123.938,274.226 126.641 C 271.036 129.831,264.967 129.519,261.488 125.986 C 259.411 123.877,259.414 123.699,261.523 123.699 C 272.232 123.699,279.353 116.849,275.794 109.971 C 273.416 105.377,265.764 103.076,258.973 104.912 M286.171 106.597 C 279.290 109.857,278.890 110.415,281.479 113.152 C 283.271 115.046,283.313 115.315,283.189 123.859 C 283.086 130.948,283.085 130.955,281.459 132.942 C 280.587 134.006,280.367 135.454,280.983 136.069 C 281.401 136.488,296.721 136.562,297.375 136.148 C 298.237 135.602,297.853 134.148,296.469 132.718 C 294.452 130.633,294.506 130.933,294.531 122.057 C 294.555 113.336,294.716 112.152,296.010 111.186 C 297.167 110.322,298.031 110.997,298.827 113.387 C 301.067 120.120,308.750 117.498,308.334 110.143 C 307.934 103.058,296.756 102.139,293.931 108.958 C 293.328 110.414,293.089 109.949,293.002 107.153 L 292.919 104.480 291.908 104.419 C 291.164 104.375,289.646 104.951,286.171 106.597 M335.694 105.127 C 328.526 106.024,327.615 106.687,329.797 109.426 C 331.522 111.591,331.503 111.474,331.501 119.711 C 331.499 128.142,331.374 128.981,329.868 130.648 C 327.606 133.151,324.640 132.153,323.815 128.613 C 323.686 128.056,323.619 122.623,323.668 116.538 C 323.735 108.144,323.671 105.372,323.403 105.049 C 322.925 104.473,321.302 104.507,315.781 105.208 C 310.237 105.911,309.888 105.992,309.530 106.662 C 309.072 107.517,309.184 107.876,310.549 109.955 L 311.850 111.935 311.852 118.179 C 311.856 128.760,313.022 132.057,317.741 134.822 C 321.194 136.846,326.939 136.935,330.193 135.015 C 331.577 134.198,331.504 134.132,331.493 136.199 C 331.431 147.336,325.335 149.989,321.035 140.751 C 319.532 137.523,318.308 136.264,316.393 135.977 C 312.913 135.455,310.325 137.865,310.820 141.167 C 312.137 149.946,329.654 152.550,337.853 145.185 C 342.736 140.799,342.919 139.912,342.919 120.677 L 342.919 104.793 342.052 104.616 C 341.575 104.519,338.714 104.749,335.694 105.127 M111.879 108.458 C 114.983 110.525,114.704 117.308,111.436 119.223 C 107.469 121.548,105.994 120.535,105.961 115.462 C 105.924 109.622,108.698 106.338,111.879 108.458 M205.691 109.071 C 209.318 112.999,206.622 119.889,201.399 120.037 C 199.229 120.098,199.128 119.896,199.104 115.462 C 199.071 109.135,202.594 105.717,205.691 109.071 M263.817 108.389 C 265.140 109.195,265.882 110.953,265.888 113.295 C 265.899 117.742,264.239 119.768,260.281 120.137 L 258.439 120.309 258.088 118.620 C 256.719 112.024,260.043 106.087,263.817 108.389 " stroke="none" fill="#000000" fill-rule="evenodd"></path></g></svg>