<svg id="svg" version="1.1" width="348" height="344" xmlns="http://www.w3.org/2000/svg" xmlns:xlink="http://www.w3.org/1999/xlink" ><g id="svgg"><path id="path0" d="M273.058 20.214 C 241.193 27.339,212.579 52.784,198.740 86.304 C 196.680 91.294,194.770 95.153,194.495 94.879 C 194.221 94.604,192.353 90.601,190.344 85.983 C 154.068 2.606,42.173 11.608,18.705 99.791 C 0.478 168.285,43.423 240.846,150.000 321.632 C 178.041 342.888,190.594 354.256,202.576 369.245 L 210.609 379.294 214.849 375.936 C 232.221 362.178,312.956 276.564,330.900 252.874 C 385.438 180.867,397.453 110.058,363.674 59.712 C 343.305 29.352,305.632 12.931,273.058 20.214 M317.178 37.412 C 339.275 42.620,346.448 49.839,363.715 84.246 L 369.025 94.828 367.899 115.517 C 364.868 171.162,325.009 238.420,251.614 311.734 C 241.229 322.107,229.291 335.444,223.557 343.079 L 213.576 356.367 210.219 351.733 C 199.475 336.901,177.623 317.114,139.080 287.316 C 82.015 243.198,53.901 213.105,37.967 179.084 C 16.268 132.757,30.336 78.217,68.966 58.902 C 120.021 33.373,177.040 63.190,190.192 122.293 C 191.217 126.900,192.373 125.269,196.619 113.218 C 206.416 85.418,223.483 62.501,244.454 48.991 C 254.085 42.787,255.738 42.337,251.093 47.186 C 247.834 50.587,248.098 50.519,259.786 44.959 C 279.516 35.573,298.683 33.053,317.178 37.412 M107.807 42.043 C 120.962 44.736,120.659 45.974,106.839 45.997 C 93.064 46.020,82.792 47.905,73.133 52.182 C 62.472 56.903,63.471 54.530,75.124 47.451 C 86.976 40.252,93.655 39.147,107.807 42.043 M257.606 312.356 C 254.948 317.237,217.200 360.112,216.329 359.241 C 214.860 357.772,229.530 339.612,245.840 322.710 C 257.920 310.192,259.581 308.729,257.606 312.356 " stroke="none" fill="#000000" fill-rule="evenodd"></path></g></svg>