<svg id="svg" version="1.1" width="636" height="320" xmlns="http://www.w3.org/2000/svg" xmlns:xlink="http://www.w3.org/1999/xlink" ><g id="svgg"><path id="path0" d="M112.578 15.296 C 112.144 15.741,102.538 17.028,97.170 17.360 C 94.748 17.509,92.343 17.763,91.824 17.923 C 91.305 18.083,87.626 18.672,83.648 19.231 C 72.287 20.829,70.801 21.087,69.968 21.602 C 69.538 21.867,67.722 22.096,65.933 22.110 C 64.144 22.124,62.233 22.363,61.686 22.641 C 61.139 22.920,58.852 23.453,56.604 23.826 C 54.355 24.199,49.261 25.089,45.283 25.804 C 41.305 26.520,35.503 27.486,32.390 27.950 C 29.277 28.415,25.456 29.148,23.899 29.578 C 19.971 30.664,12.537 32.111,10.919 32.106 C 9.062 32.099,8.791 33.788,10.141 36.966 C 11.813 40.903,11.567 40.898,31.761 37.420 C 37.399 36.449,40.771 35.551,40.490 35.097 C 40.306 34.800,41.035 34.711,42.109 34.900 C 43.183 35.090,44.656 34.927,45.383 34.538 C 46.602 33.885,46.680 33.969,46.405 35.626 C 46.124 37.320,40.777 61.195,40.626 61.431 C 40.587 61.492,36.454 62.406,31.441 63.462 C 26.428 64.519,20.950 65.810,19.266 66.331 C 17.583 66.853,15.975 67.137,15.694 66.963 C 13.647 65.698,14.480 70.398,16.695 72.613 C 19.076 74.994,20.974 75.185,27.638 73.714 C 36.308 71.800,38.365 71.490,38.360 72.100 C 38.358 72.398,37.776 75.047,37.067 77.987 C 31.732 100.120,29.808 119.205,32.754 120.781 C 34.303 121.610,35.849 121.162,35.849 119.883 C 35.849 119.383,36.155 118.871,36.528 118.746 C 37.297 118.490,39.050 110.055,38.517 109.180 C 38.326 108.867,38.443 108.779,38.775 108.984 C 39.400 109.370,41.019 103.149,41.131 99.933 C 41.166 98.934,41.407 98.115,41.667 98.115 C 41.926 98.114,42.138 97.465,42.138 96.673 C 42.138 95.881,42.594 93.546,43.151 91.484 C 43.708 89.423,44.541 85.896,45.002 83.648 C 45.463 81.399,46.301 77.720,46.865 75.472 C 47.428 73.223,48.044 70.747,48.232 69.969 C 48.437 69.123,49.051 68.553,49.759 68.553 C 50.410 68.553,50.943 68.327,50.943 68.051 C 50.943 67.498,54.607 66.038,55.996 66.038 C 56.477 66.038,59.228 64.870,62.109 63.443 C 67.627 60.710,68.726 60.633,67.113 63.095 C 62.933 69.474,61.666 86.974,64.975 92.620 C 69.334 100.058,78.865 101.280,84.695 95.150 C 86.842 92.892,93.082 81.233,93.082 79.479 C 93.082 79.028,94.364 77.214,95.931 75.450 C 97.499 73.685,99.550 71.058,100.491 69.611 C 101.431 68.165,102.496 66.698,102.857 66.352 C 103.218 66.006,104.342 63.884,105.354 61.635 C 106.366 59.387,107.253 57.450,107.324 57.332 C 107.395 57.214,107.936 57.388,108.527 57.719 C 109.150 58.067,110.551 58.106,111.859 57.811 C 114.830 57.141,114.901 57.290,113.602 61.497 C 112.991 63.476,112.238 65.943,111.928 66.981 C 110.720 71.028,109.434 80.341,109.708 83.054 C 110.967 95.494,124.175 99.054,131.205 88.847 C 132.476 87.001,133.688 85.586,133.897 85.702 C 140.567 89.409,144.309 89.462,149.832 85.929 C 153.064 83.862,163.522 73.400,163.522 72.235 C 163.522 69.755,164.752 72.817,165.707 77.673 C 167.073 84.623,167.664 85.345,172.436 85.906 L 175.952 86.319 176.624 84.197 C 176.993 83.030,177.473 80.943,177.691 79.560 C 178.735 72.920,186.224 54.929,192.265 44.548 C 193.406 42.588,194.340 40.566,194.340 40.056 C 194.340 39.546,194.794 38.954,195.348 38.741 C 195.927 38.519,196.203 37.952,195.995 37.410 C 195.787 36.869,196.134 36.154,196.810 35.731 C 197.479 35.313,197.833 34.593,197.629 34.061 C 197.410 33.489,197.535 33.291,197.953 33.549 C 198.653 33.981,201.258 30.355,201.258 28.947 C 201.258 28.519,202.128 27.069,203.192 25.726 C 205.968 22.222,204.213 18.699,200.381 20.083 C 198.977 20.590,193.745 26.688,192.324 29.474 C 191.859 30.386,190.424 32.746,189.135 34.718 C 187.847 36.691,186.792 38.563,186.792 38.879 C 186.792 39.195,186.270 40.128,185.631 40.953 C 184.402 42.539,178.157 54.549,174.711 61.950 L 172.662 66.352 172.461 62.285 C 172.350 60.049,172.535 57.643,172.871 56.940 C 174.694 53.120,174.858 51.475,173.576 49.846 C 172.591 48.594,172.327 47.295,172.327 43.704 C 172.327 35.388,170.810 32.960,165.922 33.454 L 164.000 33.648 163.918 46.591 L 163.836 59.534 160.167 64.408 C 152.086 75.144,144.738 81.429,139.411 82.159 C 134.883 82.780,135.122 76.479,139.676 75.199 C 145.497 73.562,159.165 53.229,160.174 44.705 C 160.605 41.067,157.803 37.107,154.798 37.107 C 151.349 37.107,143.302 44.028,138.894 50.786 C 137.484 52.948,136.119 54.717,135.860 54.717 C 134.310 54.717,129.564 69.457,129.554 74.305 C 129.550 75.870,128.909 78.392,128.058 80.189 C 119.490 98.279,115.629 84.844,122.393 60.476 C 125.222 50.283,125.213 50.459,122.956 49.249 C 119.570 47.433,119.028 47.247,117.840 47.484 C 111.754 48.702,111.519 48.246,114.635 41.283 L 116.003 38.226 114.536 37.037 C 112.173 35.124,108.313 35.420,107.467 37.579 C 105.632 42.264,103.735 50.051,103.856 52.402 C 103.983 54.851,99.551 62.813,98.026 62.876 C 97.804 62.886,97.519 59.851,97.391 56.132 C 96.917 42.362,88.672 37.304,80.732 45.913 C 79.741 46.987,78.464 48.304,77.893 48.839 C 73.661 52.805,72.123 54.088,71.598 54.088 C 71.266 54.088,71.150 54.339,71.340 54.646 C 71.978 55.679,70.149 56.453,66.352 56.756 C 64.277 56.922,62.037 57.287,61.375 57.567 C 60.605 57.892,60.313 57.845,60.565 57.438 C 60.799 57.059,59.639 57.143,57.701 57.645 C 53.182 58.818,52.201 58.738,52.201 57.198 C 52.201 55.129,55.907 40.203,56.930 38.153 C 58.130 35.748,58.105 34.645,56.821 33.226 C 55.967 32.282,56.220 31.791,57.390 32.120 C 57.476 32.144,58.325 31.868,59.277 31.506 C 60.370 31.091,61.006 31.074,61.006 31.462 C 61.006 31.799,61.785 32.071,62.736 32.066 C 63.923 32.059,64.202 31.889,63.627 31.524 C 62.536 30.833,64.128 30.140,67.559 29.812 C 68.914 29.683,70.542 29.413,71.175 29.212 C 71.892 28.984,72.331 29.159,72.337 29.675 C 72.344 30.333,72.459 30.326,72.894 29.638 C 73.548 28.606,76.568 28.160,77.097 29.017 C 77.326 29.386,77.754 29.397,78.201 29.043 C 79.777 27.796,83.675 26.912,84.516 27.611 C 84.967 27.985,85.530 28.097,85.768 27.859 C 86.270 27.357,87.717 26.978,89.937 26.769 C 90.802 26.688,92.005 26.433,92.610 26.204 C 95.009 25.294,95.526 25.257,95.769 25.979 C 95.962 26.551,96.234 26.555,96.910 25.999 C 97.399 25.597,99.601 25.108,101.805 24.913 C 104.008 24.717,106.176 24.254,106.623 23.883 C 107.130 23.463,107.575 23.436,107.809 23.814 C 108.032 24.176,109.504 23.929,111.481 23.199 C 113.423 22.482,115.843 22.071,117.365 22.200 C 118.787 22.321,120.627 22.151,121.453 21.822 C 122.280 21.494,123.522 21.137,124.214 21.030 C 128.884 20.306,129.857 20.036,130.300 19.338 C 131.049 18.158,130.920 17.610,129.894 17.610 C 129.341 17.610,129.112 17.240,129.324 16.687 C 129.584 16.011,129.202 15.762,127.890 15.756 C 126.906 15.752,123.129 15.573,119.497 15.360 C 115.865 15.147,112.751 15.118,112.578 15.296 M229.870 23.752 C 229.094 24.318,225.983 33.939,225.429 37.484 C 225.020 40.105,226.229 43.648,227.699 44.139 C 230.332 45.016,211.551 68.928,204.625 73.515 C 198.041 77.876,194.969 77.555,194.969 72.507 C 194.969 69.599,195.128 69.109,195.971 69.433 C 201.839 71.684,220.621 44.703,218.837 36.584 C 216.820 27.406,206.788 31.346,197.493 44.969 C 196.313 46.698,195.138 48.261,194.881 48.442 C 191.674 50.698,187.281 67.236,188.574 72.184 C 190.853 80.909,199.850 85.037,207.318 80.785 L 210.377 79.043 207.488 82.132 C 202.424 87.545,201.778 88.335,201.197 89.821 C 200.220 92.325,200.558 93.628,202.839 96.154 C 206.480 100.184,207.698 100.028,210.975 95.114 C 213.003 92.074,213.971 92.097,212.483 95.151 C 210.134 99.974,208.744 103.182,206.704 108.491 C 205.508 111.604,204.078 115.000,203.526 116.038 C 202.975 117.075,202.522 118.162,202.520 118.453 C 202.517 118.744,201.404 121.574,200.046 124.743 C 188.150 152.494,182.925 167.699,180.814 180.714 C 179.281 190.166,179.429 191.362,182.376 193.313 C 186.052 195.745,187.847 195.544,188.638 192.610 C 190.652 185.140,208.617 163.078,222.311 151.258 C 224.315 149.528,226.454 147.596,227.063 146.964 C 228.132 145.855,228.197 145.890,228.868 147.924 C 231.595 156.187,242.185 159.808,248.498 154.636 C 251.403 152.256,256.572 145.221,259.331 139.894 C 260.214 138.188,262.754 135.003,264.975 132.817 L 269.014 128.841 269.302 138.792 C 269.658 151.124,270.027 152.102,274.774 153.300 C 279.377 154.461,279.436 154.411,281.708 147.334 C 284.055 140.027,290.764 127.309,298.028 116.403 C 300.842 112.178,303.145 108.487,303.145 108.201 C 303.145 107.916,303.569 107.519,304.088 107.320 C 304.607 107.121,305.031 106.374,305.031 105.660 C 305.031 104.947,305.456 104.200,305.975 104.001 C 306.494 103.802,306.918 103.228,306.918 102.726 C 306.918 102.224,307.183 101.976,307.506 102.176 C 308.070 102.524,311.321 98.820,311.321 97.829 C 311.321 97.566,312.441 95.943,313.811 94.223 C 316.268 91.137,316.406 88.883,314.157 88.599 C 310.876 88.184,310.406 88.351,307.941 90.806 C 304.080 94.651,301.258 97.995,301.258 98.725 C 301.258 99.081,301.046 99.372,300.786 99.373 C 299.648 99.379,286.855 117.927,281.811 126.887 C 277.901 133.832,277.456 134.005,277.763 128.459 C 277.966 124.791,278.301 122.114,279.593 113.836 C 279.728 112.972,280.268 110.849,280.793 109.119 C 281.989 105.178,281.987 104.984,280.747 105.460 C 279.907 105.783,279.802 105.532,280.139 103.998 C 280.644 101.702,278.600 99.519,275.237 98.760 C 272.382 98.116,271.396 99.135,271.960 102.143 C 272.665 105.900,270.580 117.616,268.788 119.969 C 266.685 122.730,265.769 122.615,266.282 119.654 C 268.351 107.728,265.674 100.247,258.960 99.192 C 255.585 98.662,248.775 102.446,249.289 104.564 C 249.394 104.994,249.370 105.162,249.236 104.936 C 248.878 104.332,243.878 107.268,242.171 109.084 C 241.361 109.947,240.412 110.477,240.063 110.261 C 239.714 110.045,239.612 110.166,239.836 110.529 C 240.061 110.892,239.877 111.330,239.428 111.502 C 238.666 111.795,236.344 115.638,232.757 122.545 C 231.921 124.155,230.496 128.070,229.591 131.245 L 227.945 137.018 221.040 142.015 C 214.074 147.056,206.412 153.855,198.574 161.950 C 194.732 165.917,194.353 166.166,194.738 164.465 C 195.121 162.777,199.167 151.953,200.616 148.742 C 200.928 148.050,202.058 145.362,203.127 142.767 C 204.196 140.173,205.476 137.201,205.970 136.164 C 209.021 129.766,219.261 103.702,222.278 94.654 C 223.201 91.887,224.219 89.057,224.540 88.365 C 226.945 83.182,227.253 79.525,225.469 77.358 C 225.042 76.840,224.421 75.566,224.088 74.528 C 223.279 72.001,220.610 70.464,218.892 71.537 C 218.205 71.966,219.971 69.242,222.816 65.484 C 227.972 58.674,232.704 50.241,232.704 47.864 C 232.704 46.734,234.813 44.654,235.959 44.654 C 236.211 44.654,235.988 45.998,235.463 47.642 C 229.074 67.626,230.174 78.335,238.933 81.425 C 247.466 84.436,252.149 80.631,258.111 65.840 C 260.904 58.913,261.378 56.002,260.111 53.552 C 259.492 52.354,259.357 51.500,259.751 51.256 C 260.566 50.753,260.564 49.057,259.748 49.057 C 259.403 49.057,259.119 49.623,259.119 50.314 C 259.119 51.669,258.123 52.043,257.722 50.839 C 257.587 50.435,255.665 54.312,253.451 59.454 C 247.968 72.183,243.972 78.060,242.266 75.906 C 238.926 71.688,240.595 55.801,245.928 41.030 C 246.959 38.176,246.486 37.440,242.861 36.254 C 239.148 35.039,236.392 34.929,235.367 35.954 C 233.824 37.496,233.891 34.671,235.490 30.671 C 236.380 28.449,237.107 26.332,237.107 25.966 C 237.107 24.159,231.615 22.479,229.870 23.752 M207.813 45.989 C 203.738 52.447,199.421 58.121,198.945 57.645 C 198.071 56.771,204.215 46.843,208.738 41.821 C 212.190 37.988,211.826 39.629,207.813 45.989 M89.868 47.956 C 91.714 54.780,88.234 72.495,84.368 75.947 C 72.625 86.433,70.666 67.716,81.865 52.031 C 83.537 49.688,84.906 47.538,84.906 47.253 C 84.906 46.693,87.286 45.395,88.440 45.326 C 88.828 45.302,89.470 46.486,89.868 47.956 M150.265 50.088 C 145.578 57.758,139.623 65.523,139.623 63.964 C 139.623 61.365,151.568 44.440,152.643 45.515 C 152.785 45.657,151.715 47.715,150.265 50.088 M368.425 74.341 C 367.302 75.196,361.430 94.714,360.658 100.157 C 360.163 103.651,360.325 103.582,357.368 101.572 C 352.371 98.177,346.929 100.034,340.200 107.431 C 335.465 112.635,328.931 123.402,328.931 125.998 C 328.931 129.883,311.644 144.523,305.430 145.901 C 300.696 146.950,299.901 146.449,300.126 142.558 L 300.314 139.308 303.145 138.971 C 308.668 138.312,317.060 129.978,324.970 117.296 C 329.915 109.367,329.869 103.598,324.843 101.397 C 320.330 99.420,305.474 111.602,299.028 122.566 C 285.249 146.002,300.448 162.429,320.850 146.151 C 325.551 142.399,325.780 142.294,325.800 143.868 C 325.955 156.253,344.130 155.964,352.245 143.446 C 353.446 141.593,354.475 142.096,355.051 144.819 C 357.202 154.992,372.453 149.493,376.004 137.264 C 376.431 135.794,377.005 134.591,377.279 134.591 C 377.553 134.591,377.804 134.237,377.836 133.805 C 377.930 132.550,379.906 127.416,380.547 126.761 C 381.457 125.832,381.236 124.983,380.189 125.385 C 379.132 125.790,378.856 124.214,379.874 123.585 C 380.899 122.951,380.592 122.013,379.359 122.013 C 377.994 122.013,376.558 123.583,373.309 128.630 C 367.372 137.851,366.667 139.002,366.667 139.462 C 366.667 140.650,363.354 143.480,362.714 142.839 C 361.705 141.830,361.586 130.231,362.544 126.339 C 363.885 120.899,369.149 101.200,370.088 98.113 C 376.203 78.000,376.661 74.237,372.993 74.205 C 372.454 74.201,371.447 74.045,370.755 73.861 C 370.063 73.676,369.014 73.892,368.425 74.341 M77.044 84.196 C 81.757 85.429,81.502 85.181,80.192 87.245 C 76.354 93.294,73.880 94.496,72.324 91.069 C 70.688 87.464,70.588 82.047,72.170 82.732 C 72.775 82.994,74.969 83.653,77.044 84.196 M259.527 104.234 C 261.450 111.895,255.649 131.368,250.554 134.354 C 245.473 137.332,240.851 136.982,242.930 133.777 C 243.841 132.372,243.727 130.539,242.765 131.134 C 241.970 131.625,241.352 127.944,241.841 125.629 C 242.723 121.448,247.128 113.488,250.907 109.247 C 253.003 106.895,254.717 104.725,254.717 104.425 C 254.717 103.948,257.335 102.706,258.636 102.565 C 258.889 102.538,259.290 103.289,259.527 104.234 M352.406 105.189 C 352.593 105.967,352.495 107.877,352.187 109.434 C 351.039 115.236,351.332 116.808,353.774 117.967 C 356.229 119.132,356.204 119.091,355.384 120.606 C 355.059 121.207,353.896 123.538,352.800 125.786 C 345.452 140.863,336.647 151.449,334.884 147.327 C 332.556 141.884,334.325 134.044,340.241 123.585 C 342.209 120.106,342.735 118.522,342.749 116.032 C 342.763 113.628,343.051 112.704,343.965 112.133 C 344.624 111.722,345.775 110.158,346.524 108.659 C 347.674 106.357,350.129 104.049,351.661 103.831 C 351.883 103.799,352.218 104.410,352.406 105.189 M317.010 115.057 C 312.277 121.274,306.545 127.493,306.021 126.978 C 305.332 126.302,310.733 118.904,315.494 114.001 C 321.344 107.978,322.034 108.457,317.010 115.057 M240.975 141.189 C 242.826 142.050,244.835 142.758,245.440 142.761 C 247.338 142.772,246.656 144.317,243.268 147.687 C 238.483 152.447,236.478 151.190,236.478 143.427 C 236.478 139.080,236.462 139.088,240.975 141.189 " stroke="none" fill="#000000" fill-rule="evenodd"></path></g></svg>