<svg xmlns="http://www.w3.org/2000/svg" width="2000" height="2000"><path d="m1750 98 2.262 1.973c12.11 11.284 20.676 26.212 27.738 41.027l1.063 2.211c5.697 12.047 10.036 24.542 14.249 37.164l.773 2.307c12.668 38.023 12.668 38.023 6.263 51.935-2.016 3.564-4.315 6.876-6.762 10.156-4.046 5.681-4.219 10.354-3.586 17.227a78 78 0 0 0 1.5 4.938c2.09 6.36 3.047 12.998.609 19.402-4.121 6.865-10.651 12.023-16.588 17.28-2.255 2.046-4.381 4.215-6.521 6.38l-1.773 1.633c-6.077 5.661-12.045 12.756-13.352 21.179-.112 4.197.487 6.797 3.125 10.188 8.065 6.974 18.925 8.636 29 11 23.703 5.586 47.085 12.201 69 23l2.241 1.094c8.986 4.429 17.393 9.001 24.759 15.906l1.875 1.715c16.858 17.196 18.311 42.611 18.2 65.212q-.018 4.027-.024 8.056c-.013 6.686-.037 13.372-.061 20.058q-.031 8.458-.046 16.916-.01 3.87-.032 7.74a686 686 0 0 0 .454 26.984c.71 19.617.696 39.205.587 58.832a6753 6753 0 0 0-.071 18.558l-.019 6.46-.01 3.265c-.042 14.329-.093 28.657-.175 42.985-.073 12.911-.12 25.82-.131 38.731l-.003 3.196c-.014 36.619 1.552 72.953 4.438 109.451 1.074 13.602 1.667 27.203 2.018 40.841l.064 2.443c1.396 57.018-13.298 124.573-52.064 168.557l-2.938 2.688c-4.101 4.598-3.23 11.557-3.267 17.475l-.022 2.375a1252 1252 0 0 0-.027 7.751l-.003 2.732c.013 19.93 1.411 39.667 3.083 59.516.41 4.915.8 9.832 1.191 14.748l.243 3.058.492 6.185q.374 4.696.751 9.392a4119 4119 0 0 1 3.309 44.682l.221 3.193.877 12.725c5.355 78.214 5.355 78.214 13.618 156.163 3.704 29.964 3.704 29.964-5.801 43.215-6.298 7.666-13.879 12.501-23.727 14.102-8.228.693-16.178-.467-24.266-1.845-7.216-1.2-14.436-1.713-21.734-2.155l-.196 2.566c-4.27 54.663-15.35 107.487-27.954 160.766-16.453 68.847-16.453 68.847-27.85 138.668l-.272 2.187c-4.185 34.124-3.774 68.456-.708 102.659 2.466 28.236-3.25 49.898-21.02 72.154q-1.263 1.61-2.523 3.223a2029 2029 0 0 1-5.457 6.941 1779 1779 0 0 0-8.224 10.524q-1.794 2.31-3.592 4.617a989 989 0 0 0-8.224 10.672c-14.169 18.596-14.169 18.596-23.98 20.023-6.367.606-10.702-.331-16-4-8.811-8.811-12.168-21.089-12.188-33.375L1643 1924q-1.689 1.467-3.375 2.938l-2.234 1.937a152 152 0 0 0-4.657 4.313c-10.27 9.793-22.771 17.527-37.296 18.187-10.863-.446-20.353-5.44-27.77-13.23A47.7 47.7 0 0 1 1558 1915l-.402-2.848c-2.899-26.285 8.432-49.691 19.526-72.758 15.489-32.242 22.708-61.062 11.151-95.849-4.333-12.049-9.478-23.811-14.409-35.624A604 604 0 0 1 1562 1677l-1.176-3.313c-22.486-63.908-35.156-131.912-37.386-199.625l-.129-3.836c-.439-14.408-.406-28.813-.309-43.226-10.879-2.325-20.152.25-30.696 3.009-11.53 2.992-24.182 5.727-35.304-.009-11.287-6.819-18.323-18.036-22.033-30.46-1.271-5.182-1.27-10.237-1.223-15.549l.017-3.288c.158-13.472 1.166-26.892 2.169-40.321.287-3.869.563-7.739.84-11.61q.724-10.046 1.459-20.09c.783-10.702 1.546-21.405 2.307-32.108l.789-11.091.199-2.8q1.12-15.73 2.248-31.459l.207-2.897q1.442-20.103 2.912-40.204c1.694-23.193 3.357-46.389 4.98-69.588l.192-2.733c3.473-49.565 6.273-98.931 5.908-148.647l-.02-2.725-.02-2.656-.036-5.104-.019-2.449c-.128-20.582 2.628-39.664 9.124-59.221l.879-2.65c6.672-19.774 15.381-38.652 24.35-57.466 28.58-59.952 46.247-115.063 24.146-180.259-8.416-23.461-19.695-45.83-30.83-68.091-1.825-3.65-3.633-7.307-5.437-10.967a2107 2107 0 0 0-4.304-8.646 690 690 0 0 1-2.002-4.043c-16.957-34.465-44.789-50.381-78.604-65.917-8.605-4.003-16.861-8.665-25.153-13.272a2137 2137 0 0 0-9.502-5.232 1127 1127 0 0 1-37.248-21.394c-7.801-4.66-15.715-9.04-23.712-13.352-10.632-5.743-20.559-11.61-29.583-19.711l-2.586-2.215c-4.883-4.259-9.504-8.784-14.102-13.347l-1.584-1.57c-3.456-3.472-6.698-7.088-9.905-10.791-3.127-3.563-6.382-7.004-9.635-10.452l-2.117-2.256a290 290 0 0 0-11.696-11.744c-6.748-6.646-11.44-14.729-11.625-24.313.174-10.79 4.896-17.791 12.25-25.374 9.518-8.959 21.387-14.817 32.972-20.635 28.022-14.114 53.496-30.75 78.028-50.303l2.093-1.652c7.473-5.899 14.651-11.954 21.532-18.536 9.614-9.149 21.463-20.37 35.375-21.312 7.786.453 15.092 4.935 21.871 8.449 4.686 2.313 8.996 3.023 14.129 2.051 2.64-1.493 4.951-3.23 7.367-5.062 11.633-8.561 26.029-11.745 40.055-14.042 16.322-2.701 27.74-12.085 40.578-21.896l5.223-3.977q3.954-3.012 7.904-6.033c6.855-5.241 13.779-10.383 20.746-15.474 5.331-3.901 10.528-7.747 15.127-12.516h3l-.219-1.852c-1.539-15.182-2.265-29.949 2.727-44.515 2.291-6.751 3.673-13.768 5.172-20.73 1.943-8.542 4.896-15.964 10.32-22.903h2v-2c42.218-28.408 132.739 20.406 165 49m-219 152c-8.615 5.025-18.69 3.327-28.208 2.175-13.271-1.604-23.207-.56-34.792 6.825-3.867 3.138-7.431 6.531-11 10a315 315 0 0 1-5.891 5.18 246 246 0 0 0-4.531 4.015c-11.806 10.372-25.343 18.147-39.25 25.356l-2.292 1.192a841 841 0 0 1-11.396 5.814c-11.243 5.705-17.656 11.597-23.452 22.943l-1.155 2.145c-2.46 4.713-3.926 9.155-5.033 14.355 3.009 4.408 5.479 5.954 10.504 7.648l1.912.662c2.044.703 4.095 1.384 6.146 2.065q2.124.722 4.245 1.449 3.166 1.087 6.335 2.162a342 342 0 0 1 14.014 5.129c17.23 6.679 35.204 10.289 52.844 2.885 4.572-2.408 8.426-5.039 11.625-9.125 6.969-8.437 17.942-8.835 28.121-10.48 8.653-1.511 15.999-4.156 23.891-7.872 12.467-5.647 25.158-2.005 37.363 2.477l2.497.908a983 983 0 0 1 10.209 3.768l2.31.871 2.04.776c4.043 1.408 7.59 1.837 11.882 1.865l3.089.042c4.662-.361 7.184-1.335 10.285-4.855 2.119-4.236 2.01-6.703 1.688-11.375-3.408-2.95-6.398-4.723-10.625-6.25-7.566-3.014-13.701-7.583-19.84-12.875-3.438-2.543-6.949-3.456-11.012-4.652-3.153-1.528-3.783-3.254-5.523-6.223-2.167-1.116-2.167-1.116-4.562-1.625-4.235-1.071-4.235-1.071-6.438-4.375-.893-7.432.17-14.7 1.5-22 1.843-10.208 3.521-20.478-1.5-30-2.395-2.458-4.284-3.706-7.438-5-3.741 0-5.563 1.841-8.562 4m286 420c-6.187 4.64-10.082 9.41-12 17-.499 5.412-.436 10.838-.439 16.27-.162 9.543-2.56 16.519-7.311 24.73-2.918 5.684-3.139 11.023-1.754 17.219.72 3.975.786 7.938.942 11.969.644 13.653 2.408 25.833 11.878 36.316 1.722 1.727 1.722 1.727 4.684 2.496 2.543-5.38 3.897-10.467 4.938-16.312l.494-2.706c.538-2.992 1.056-5.986 1.568-8.982l.585-3.403c.591-3.488 1.163-6.979 1.727-10.472l.557-3.329c1.195-7.646 1.286-13.706-1.869-20.921-5.342-12.294-3.075-26.422-1.716-39.399.635-6.178.978-12.262.716-18.476zm-180 779c-1.918 3.068-2.257 5.411-2.269 9.002l-.013 3.111.027 3.446.017 3.708c.177 17.607 1.213 35.187 2.158 52.766.277 5.165.544 10.33.813 15.495q.68 13.039 1.375 26.076.96 18.086 1.904 36.173 1.765 33.705 3.57 67.407.454 8.487.905 16.975.51 9.608 1.033 19.216.174 3.215.344 6.431c1.315 24.749 3.381 49.509 6.761 74.069l.336 2.449c.537 3.547 1.151 6.593 3.039 9.676l4 1c2.694-1.92 3.055-3.227 3.856-6.503q.362-2.242.687-4.489l.392-2.509c.431-2.789.842-5.581 1.253-8.374q.45-2.992.903-5.984c5.282-35.304 9.823-70.735 13.847-106.203l.308-2.719q.426-3.783.844-7.567l.239-2.141c1.107-10.187 1.831-20.292 1.874-30.542l.021-3.418q.025-5.526.026-11.051l.002-3.881c-.022-26.62-1.291-53.075-3.252-79.619l-.147-1.998a7630 7630 0 0 0-3.767-48.951l-.287-3.601c-.149-12.521-.149-12.521-4.799-23.45-10.681-5.341-27.545-1.879-36 6M579.06 96c6.216 5.739 8.443 13.749 8.938 22-.405 10.393-2.11 19.639-8.598 28.078-2.163 2.965-2.53 5.486-2.535 9.047l-.004 2.391.011 2.484-.011 2.484.004 2.391.003 2.18c.062 2.163.062 2.163 1.13 4.945.093 1.602.129 3.208.124 4.812l-.003 2.708c-.121 2.48-.121 2.48-.934 5.48-.308 4.926 2.073 8.991 4.813 13 3.803 3.438 7.898 5.541 12.554 7.574l2.212.986c2.366 1.051 4.737 2.09 7.108 3.128.81.355 1.619.711 2.452 1.078 20.659 9.087 40.928 17.47 63.068 22.175 14.985 3.222 27.601 9.171 40.668 17.09 6.21 3.762 12.516 7.355 18.812 10.969q3.373 1.935 6.743 3.875l2.925 1.68a115 115 0 0 1 5.458 3.445c3.717-.573 5.368-2.07 8-4.688 7.219-6.668 16.911-12.011 26.945-11.91 6.026 1.179 11.003 5.035 16.078 8.341 3.127 1.989 6.358 3.778 9.601 5.569a694 694 0 0 1 13.141 7.465A576 576 0 0 0 847.498 291l3.179 1.636c11.467 5.736 23.39 8.791 35.875 11.43 7.162 1.61 13.152 3.736 17.883 9.684 4.657 5.603 9.699 10.658 15.223 15.406 4.198 3.667 8.143 7.536 12.058 11.5l2.128 2.14q4.45 4.476 8.89 8.961 3.27 3.296 6.545 6.587l1.986 2.011c3.782 3.802 7.684 7.381 11.742 10.884 3.382 2.992 6.557 6.185 9.744 9.382l2.135 2.132q2.216 2.215 4.43 4.435 3.359 3.365 6.726 6.72l4.334 4.338 2.002 1.996a226 226 0 0 1 11.09 11.99c2.973 3.436 6.101 6.732 9.197 10.057 4.008 4.658 6.792 9.353 9.024 15.07l1.424 3.633.721 1.874c.72 1.868 1.452 3.732 2.185 5.595 9.334 23.982 6.746 39.607-3.446 62.911-6.015 13.289-13.06 24.442-23.575 34.628l-1.701 1.652c-5.534 5.127-11.668 8.694-18.237 12.348a4791 4791 0 0 0-6.969 3.953l-1.785 1.012c-6.145 3.49-12.198 7.13-18.246 10.785-41.777 25.173-74.608 43.025-124.062 44.25l-1.079 1.506c-8.14 11.319-16.542 22.178-25.921 32.494l-1.8 1.986c-13.344 14.676-13.344 14.676-20.2 20.014l-1.532 1.216a421 421 0 0 1-5.468 4.222l-1.668 1.305c-4.59 3.412-9.505 5.923-14.618 8.441l-2.25 1.116q-2.73 1.352-5.464 2.7l-.013 1.791a92274 92274 0 0 1-.327 44.018q-.081 10.644-.158 21.29-.08 11.322-.17 22.646l-.032 4.108c-.117 15.061-.273 30.12-.598 45.178l-.077 3.601q-.178 8.287-.397 16.573c-.404 16.344.475 32.36 2.229 48.605.652 6.16 1.237 12.327 1.824 18.495.659 6.924 1.319 13.849 2.004 20.771 1.527 15.47 2.899 30.799 2.777 46.362l-.014 3.408c-.034 8.14-.034 8.14-1.048 9.154h-480c-3.666-3.666-2.601-16.971-3-22l-.287-3.46c-1.69-21.303-1.953-42.624-2.018-63.983q-.013-3.22-.037-6.442c-.158-24.573 1.718-48.376 6.904-72.427q.915-4.337 1.816-8.676l.433-2.074c4.472-18.233 4.472-18.233.189-35.626a139 139 0 0 0-3-4.312h-2l-.954 2.852-1.296 3.773-1.266 3.727c-2.646 6.503-5.546 9.984-11.484 13.648-2.471 2.115-3.477 3.749-4.317 6.879l-.627 2.295-.619 2.388-.631 2.307a307 307 0 0 0-1.806 7.131l-.58 2.249c-1.671 7.174-1.773 14.358-1.885 21.69-.063 4.069-.156 8.137-.25 12.206l-.06 2.621c-.163 6.711-.425 13.415-.729 20.121l-.138 3.038q-.272 5.933-.561 11.866c-.922 18.774-1.34 37.401.265 56.147.712 9.392 1.097 18.647.688 28.062l-.117 2.82c-.284 4.993-.987 8.24-2.633 13.18h-128c-1.431-4.291-2.392-7.7-3.036-12.07l-.513-3.469-.514-3.586-.525-3.516c-9.06-62.066 3.075-129.037 16.763-189.609 1.522-6.925.943-11.238-2.113-17.488-.992-2.112-1.687-4.163-2.375-6.387-1.464-4.089-3.986-6.547-7.164-9.43-1.523-1.445-1.523-1.445-2.523-3.445.016-8.234 2.096-15.981 4.324-23.844l1.025-3.706q1.088-3.936 2.193-7.867c1.16-4.133 2.307-8.27 3.453-12.407a9882 9882 0 0 1 4.711-16.949 11874 11874 0 0 0 9.159-33.026q1.284-4.64 2.579-9.277c7.712-25.495 7.712-25.495 9.618-51.799-.49-8.557.084-14.228 5.48-21.086 5.284-4.543 11.145-7.883 17.163-11.343 5.473-3.16 10.604-6.425 15.295-10.696l1.773-1.609c9.253-9.463 14.254-23.376 19.851-35.141q2.073-4.34 4.149-8.677a647 647 0 0 0 2.25-4.767 295 295 0 0 1 2.601-5.368l1.352-2.817c5.181-6.711 14.109-10.492 21.398-14.559l2.993-1.679a4748 4748 0 0 1 9.633-5.383l3.312-1.852c72.412-40.468 72.412-40.468 105.667-53.314l2.021-.834 2.135-.859c2.327-1.424 2.839-2.558 3.865-5.063l1-2.359c.329-.815.66-1.63 1-2.469 4.719-11.431 4.719-11.431 8-15.25 4.952-2.005 10.158-2.535 15.437-3.125l4.047-.468 3.516-.407c1.75-14.168 2.315-28.148 2.26-42.419-.011-3.341 0-6.682.013-10.022.206-20.601.206-20.601-4.273-40.559l-2.688 2.5c-1.991 1.852-3.024 2.457-5.746 2.863-5.887-.833-10.109-6.435-13.527-10.957-8.632-13.116-13.248-26.078-13.415-41.781l-.042-2.595c.039-5.084.596-8.634 3.418-13.03 3.084-2.656 4.407-3.042 8.5-2.75l3.5.75q2.498.503 5 1l-1.465-8.887a89 89 0 0 0-1.077-5.402c-.532-3.148-.471-6.009-.337-9.199l.149-3.807.084-1.99c.084-2.045.154-4.089.219-6.135.364-11.184.364-11.184.813-16.623.572-9.501-1.786-14.415-7.183-21.859-6.484-9.117-6.127-19.112-4.7-29.91 2.248-12.536 6.428-27.306 17.184-35.25C446.463 54.998 528.036 56.255 579.06 96m-4.062 115c-3.141 3.141-2.979 6.208-3.098 10.551l.035 3.761.027 3.801.036 2.887 1.792-.691c3.375-1.228 6.35-2.29 9.958-2.371 3.448 1.628 5.469 3.766 7.25 7.062 3.686 11.252.195 20.251-4.188 30.75l-1.206 2.913c-7.78 18.51-7.78 18.51-13.606 24.337l-10-1c-1.721 1.72-1.375 4.088-1.579 6.441-2.737 29.197-2.737 29.197-8.924 40.242-1.725 3.821-2.297 7.411-2.736 11.532l-.27 2.345a670 670 0 0 0-.537 4.889c-.266 2.48-.559 4.955-.855 7.432q-.265 2.385-.525 4.771l-.268 2.22c-.678 6.738 1.034 12.124 3.971 18.194l1.306 2.721 1.354 2.775 1.342 2.788c1.232 2.554 2.475 5.102 3.721 7.65l1.691 3.527c1.655 3.128 2.614 4.242 5.996 5.368l3.313.917c12.148 3.681 22.534 9.56 30.3 19.923 3.781 5.014 6.875 6.534 12.985 7.55l2.359.455q2.454.465 4.914.889c2.507.434 5.001.913 7.498 1.4q2.395.445 4.791.881l2.251.429c5.315.892 8.401.338 12.823-2.628l1.829-1.336c4.33-2.78 8.201-3.276 13.25-2.375 3.274 1.285 3.959 1.94 6 5 3.308-.389 4.914-.932 7.57-3.031 4.579-2.629 8.005-2.412 13.176-2.219l2.816.046c3.957.065 7.912.178 11.867.286 2.897.073 5.794.121 8.692.168l2.683.101c7.034.11 11.035-1.608 16.41-6.273l1.723-1.828 1.777-1.859 1.286-1.391c62.46-1.671 62.46-1.671 73.886 8.715a89 89 0 0 1 3.473 3.762c1.977 1.835 2.954 2.293 5.641 2.523 7.808-1.591 14.515-4.422 21-9-.556-3.647-1.774-4.982-4.626-7.25-7.109-5.952-13.189-13.116-17.761-21.203-7.093-11.198-21.809-19.112-33.078-25.516-6.182-3.518-8.211-5.776-10.368-12.5-2.432-5.272-7.547-8.258-12.167-11.531-.622-.446-1.243-.891-1.882-1.351a982 982 0 0 0-10.548-7.446c-5.553-3.875-11.031-7.855-16.506-11.839-3.967-2.879-7.964-5.678-12.064-8.364v-10l-2.317-1.398c-13.951-8.496-27.385-17.204-39.547-28.188-7.76-6.936-16.067-12.195-25.051-17.426-26.575-15.478-26.575-15.478-34.085-22.988-.415-2.383-.415-2.383-.626-5.125l-.226-2.758-.148-2.117c-3.344-2.804-6.645-5.03-10.5-7.066l-3.172-1.707-3.328-1.789c-9.73-5.315-17.893-10.914-26-18.438z"/></svg>