<svg id="svg" version="1.1" width="2000" height="2000" xmlns="http://www.w3.org/2000/svg" xmlns:xlink="http://www.w3.org/1999/xlink" ><g id="svgg"><path id="path0" d="M147.500 97.680 C 146.166 98.102,145.494 98.536,144.544 99.593 C 142.923 101.397,143.000 100.462,143.000 118.229 L 143.000 133.986 127.050 134.043 L 111.100 134.100 109.848 134.678 C 106.824 136.075,106.300 137.348,106.300 143.300 C 106.300 149.222,106.779 150.408,109.830 152.036 L 110.700 152.500 126.850 152.555 L 143.000 152.609 143.000 189.668 C 143.000 222.135,143.037 226.853,143.302 227.744 C 143.683 229.026,145.090 230.629,146.478 231.361 L 147.500 231.900 152.150 231.900 C 154.707 231.900,156.800 231.942,156.800 231.994 C 156.800 232.460,153.342 256.938,153.171 257.683 C 152.986 258.484,152.645 258.996,151.322 260.455 C 145.538 266.834,145.669 266.514,142.900 281.127 C 140.569 293.431,140.559 293.637,142.266 294.413 C 143.575 295.007,282.225 295.007,283.534 294.413 C 285.155 293.677,285.157 293.324,283.607 284.834 C 282.194 277.099,280.572 267.816,279.302 260.200 C 277.702 250.602,277.092 248.857,274.262 245.764 C 273.634 245.077,273.146 244.327,273.029 243.864 C 272.809 242.998,271.239 227.100,270.495 218.200 C 269.443 205.606,267.256 201.438,258.697 195.709 C 255.883 193.826,256.406 194.546,252.298 186.900 C 245.725 174.668,245.297 173.959,243.066 171.594 C 239.706 168.031,236.723 166.491,228.784 164.220 C 209.856 158.806,210.257 158.850,201.300 161.233 C 192.963 163.451,192.888 163.516,182.400 177.500 L 174.300 188.300 172.662 189.302 C 169.615 191.168,163.961 197.027,162.472 199.862 L 161.612 201.500 161.606 177.055 L 161.600 152.609 177.650 152.555 L 193.700 152.500 194.722 151.961 C 197.674 150.403,198.249 148.899,198.164 142.957 C 198.090 137.836,197.924 137.248,196.098 135.640 C 194.260 134.022,195.280 134.109,177.458 134.045 L 161.616 133.988 161.558 118.244 C 161.506 104.177,161.465 102.408,161.170 101.639 C 160.398 99.627,159.002 98.313,157.008 97.721 C 155.633 97.313,148.755 97.283,147.500 97.680 M214.243 165.608 C 233.864 170.576,238.066 172.558,241.586 178.500 C 242.999 180.886,248.462 191.006,248.375 191.077 C 248.334 191.110,246.860 190.616,245.100 189.979 C 240.216 188.209,238.400 188.609,238.400 191.454 C 238.400 193.369,238.320 193.326,248.892 197.036 C 254.802 199.110,255.562 199.540,259.250 202.892 C 264.077 207.279,264.124 207.438,265.875 224.953 C 267.049 236.695,267.154 238.436,266.628 237.453 C 265.874 236.044,263.002 236.128,262.141 237.584 C 261.097 239.352,261.344 239.740,267.883 246.600 C 272.277 251.209,272.527 251.817,274.313 262.278 C 275.029 266.470,276.383 274.256,277.322 279.579 C 279.248 290.502,279.261 289.668,277.165 289.538 C 275.525 289.437,274.400 288.834,273.287 287.461 C 270.405 283.905,267.607 281.822,263.547 280.209 C 262.129 279.646,262.082 279.573,262.465 278.535 C 267.478 264.954,261.729 250.270,248.879 243.837 C 246.827 242.809,246.966 243.206,246.105 235.900 C 244.218 219.907,243.388 216.761,239.581 211.191 C 224.885 189.691,191.818 194.289,183.615 218.973 C 182.832 221.327,182.109 225.333,181.695 229.600 C 181.519 231.415,181.069 235.735,180.694 239.200 C 179.711 248.284,177.295 271.348,176.786 276.500 C 176.354 280.873,176.134 281.808,175.448 282.174 C 175.257 282.276,172.985 283.188,170.400 284.200 C 167.815 285.213,163.720 286.819,161.300 287.769 L 156.900 289.497 151.950 289.564 C 147.922 289.618,146.980 289.580,146.895 289.360 C 146.772 289.038,149.874 272.552,150.331 271.100 C 150.797 269.619,151.835 267.854,153.036 266.501 C 153.621 265.842,156.906 262.181,160.337 258.367 C 167.727 250.149,167.846 249.962,166.808 248.260 C 165.584 246.252,163.810 246.575,161.365 249.250 C 160.220 250.503,159.680 250.969,159.637 250.742 C 159.568 250.388,159.596 250.179,162.000 232.900 C 162.873 226.630,163.996 218.485,164.497 214.800 C 166.134 202.751,166.252 202.459,171.673 197.123 C 176.033 192.830,174.932 193.328,187.900 189.782 C 191.090 188.909,193.949 188.095,194.254 187.972 C 196.401 187.105,196.274 183.983,194.061 183.212 C 193.258 182.933,193.086 182.962,188.209 184.227 C 185.445 184.943,183.223 185.433,183.270 185.315 C 183.526 184.670,194.496 170.356,195.323 169.586 C 196.661 168.342,197.791 167.724,199.800 167.137 C 207.275 164.956,208.220 164.780,211.043 165.044 C 211.892 165.123,213.332 165.377,214.243 165.608 M218.500 203.097 C 230.439 205.573,238.444 214.826,239.785 227.700 C 239.900 228.800,240.323 232.244,240.726 235.354 C 241.128 238.464,241.409 241.058,241.349 241.118 C 241.289 241.178,240.549 241.131,239.705 241.013 C 221.564 238.490,205.619 255.089,208.690 273.300 C 208.856 274.290,208.995 275.161,208.997 275.236 C 208.998 275.311,208.709 275.289,208.354 275.187 C 207.999 275.085,207.001 274.943,206.136 274.871 C 204.318 274.719,204.338 274.742,204.008 272.462 C 201.444 254.753,215.737 237.775,234.450 236.302 C 235.719 236.202,236.200 236.090,236.200 235.894 C 236.200 235.195,235.163 226.906,234.887 225.400 C 231.600 207.465,210.379 200.906,197.785 213.933 C 193.923 217.927,192.574 221.186,191.713 228.600 C 191.274 232.375,187.054 272.304,186.685 276.163 C 186.513 277.974,186.483 278.003,183.897 278.869 L 181.783 279.577 181.900 278.438 C 182.803 269.665,184.618 252.303,185.395 245.000 C 185.939 239.885,186.571 233.795,186.800 231.466 C 187.748 221.815,188.968 217.926,192.537 213.179 C 198.594 205.126,208.930 201.112,218.500 203.097 M240.989 246.498 C 258.414 250.163,265.081 271.916,252.610 284.414 C 248.622 288.411,246.429 289.509,242.500 289.477 C 237.936 289.441,235.332 288.564,228.240 284.677 C 226.073 283.490,222.320 281.434,219.900 280.109 C 214.910 277.377,215.022 277.491,214.191 274.300 C 210.048 258.404,224.806 243.094,240.989 246.498 M250.100 261.781 C 248.737 262.379,248.383 263.499,248.734 266.100 C 249.428 271.232,247.996 275.089,244.240 278.208 C 241.984 280.081,242.007 282.643,244.286 283.396 C 246.358 284.079,250.295 280.581,252.385 276.200 C 255.670 269.314,254.191 259.984,250.100 261.781 M206.364 280.203 C 209.186 280.501,210.287 280.970,218.323 285.300 L 225.746 289.300 212.373 289.351 C 205.018 289.380,192.951 289.380,185.557 289.351 L 172.115 289.300 174.207 288.464 C 175.358 288.005,177.785 287.004,179.600 286.241 C 190.966 281.462,199.672 279.498,206.364 280.203 M261.941 285.263 C 263.743 286.023,265.418 287.119,267.000 288.572 L 268.100 289.582 261.650 289.591 C 258.103 289.596,255.200 289.530,255.200 289.444 C 255.200 289.359,255.794 288.706,256.520 287.994 C 257.246 287.282,258.194 286.228,258.626 285.650 C 259.576 284.382,259.792 284.357,261.941 285.263 " stroke="none" fill="#000000" fill-rule="evenodd"></path></g></svg>