<svg id="svg" version="1.1" width="2000" height="2000" xmlns="http://www.w3.org/2000/svg" xmlns:xlink="http://www.w3.org/1999/xlink" ><g id="svgg"><path id="path0" d="M202.800 5.925 C 194.861 7.469,189.810 13.505,189.802 21.458 C 189.794 28.337,194.097 33.047,203.900 36.891 C 208.873 38.841,210.267 40.172,210.242 42.942 C 210.193 48.484,200.126 49.284,191.989 44.393 C 191.079 43.846,190.316 43.422,190.294 43.449 C 190.230 43.528,188.992 53.655,188.996 54.061 C 189.002 54.623,192.602 56.204,195.900 57.092 C 210.067 60.909,220.833 54.702,220.867 42.700 C 220.887 35.484,216.957 31.149,206.446 26.791 C 200.886 24.486,199.503 22.613,200.800 19.147 C 202.145 15.551,206.772 14.905,213.763 17.337 C 216.277 18.211,216.020 18.540,216.677 13.600 C 216.977 11.345,217.272 9.173,217.333 8.774 L 217.444 8.047 215.872 7.524 C 211.887 6.198,205.448 5.410,202.800 5.925 M166.100 9.799 C 162.470 10.664,156.913 11.984,153.750 12.730 C 150.588 13.477,148.000 14.160,148.000 14.248 C 148.000 14.459,159.827 64.283,159.895 64.357 C 160.147 64.631,185.895 58.201,185.860 57.872 C 185.808 57.383,183.606 48.139,183.522 48.055 C 183.467 48.000,168.898 51.425,167.987 51.706 C 167.634 51.816,165.222 42.276,165.536 42.008 C 165.626 41.931,168.490 41.211,171.900 40.409 C 175.310 39.606,178.178 38.878,178.273 38.792 C 178.439 38.640,176.285 29.033,176.026 28.772 C 175.957 28.702,172.975 29.347,169.400 30.206 C 165.825 31.064,162.892 31.751,162.883 31.733 C 162.790 31.553,160.595 21.945,160.640 21.917 C 160.673 21.896,163.968 21.119,167.962 20.190 C 171.956 19.260,175.310 18.449,175.416 18.386 C 175.574 18.291,174.291 12.327,173.386 8.950 C 173.138 8.026,173.907 7.936,166.100 9.799 M233.949 24.850 C 227.727 46.392,227.604 47.179,229.607 52.574 C 234.101 64.674,253.198 68.623,261.000 59.066 C 262.654 57.041,263.647 55.438,264.481 53.450 C 265.255 51.605,274.655 18.973,274.464 18.796 C 274.184 18.538,264.822 15.911,264.682 16.052 C 264.609 16.125,262.415 23.545,259.807 32.542 C 257.198 41.539,254.833 49.354,254.550 49.908 C 252.151 54.611,245.019 55.198,241.143 51.012 C 238.837 48.521,238.633 46.399,240.187 41.079 C 244.001 28.024,248.803 11.340,248.756 11.309 C 248.679 11.258,238.871 8.400,238.776 8.400 C 238.734 8.401,236.562 15.803,233.949 24.850 M123.371 24.810 C 121.836 25.022,119.542 25.799,118.100 26.594 C 117.550 26.898,116.110 27.666,114.900 28.303 C 113.690 28.939,112.115 29.773,111.400 30.156 C 108.734 31.584,107.259 32.372,105.800 33.147 C 104.975 33.585,103.334 34.458,102.153 35.086 L 100.006 36.228 100.428 37.064 C 100.661 37.524,102.584 41.140,104.702 45.100 C 110.535 56.005,120.741 75.107,122.601 78.600 C 123.509 80.305,124.280 81.732,124.314 81.771 C 124.364 81.829,133.368 77.098,133.545 76.921 C 133.574 76.893,131.520 72.976,128.982 68.218 C 126.444 63.460,124.397 59.543,124.433 59.514 C 124.470 59.485,125.417 58.985,126.539 58.404 L 128.578 57.346 130.639 58.741 C 140.634 65.507,146.805 69.600,147.009 69.600 C 147.465 69.600,157.432 64.152,157.266 63.994 C 157.174 63.908,152.600 60.984,147.100 57.497 C 141.600 54.009,137.073 51.131,137.040 51.101 C 137.007 51.072,137.438 50.443,137.996 49.705 C 145.896 39.268,136.348 23.016,123.371 24.810 M290.306 33.573 C 288.329 36.613,285.889 40.360,284.884 41.900 C 283.879 43.440,279.207 50.595,274.503 57.800 C 269.800 65.005,265.912 70.999,265.865 71.121 C 265.797 71.296,268.924 73.424,274.118 76.737 C 274.517 76.992,274.768 76.647,279.888 68.795 L 285.242 60.587 285.871 60.996 C 286.217 61.221,287.108 61.785,287.850 62.249 C 288.939 62.929,289.200 63.190,289.198 63.596 C 289.197 63.873,288.751 68.867,288.208 74.694 C 287.665 80.521,287.243 85.309,287.269 85.336 C 287.479 85.546,296.886 91.600,297.002 91.600 C 297.198 91.600,297.282 90.550,298.001 79.100 C 298.333 73.820,298.652 69.047,298.711 68.494 L 298.818 67.487 300.601 67.785 C 314.439 70.095,323.744 51.290,313.706 41.299 C 312.710 40.308,296.487 29.403,294.300 28.256 C 293.934 28.064,293.593 28.517,290.306 33.573 M126.771 36.285 C 130.004 37.957,131.034 43.055,128.605 45.362 C 127.880 46.051,119.905 50.469,119.582 50.360 C 119.305 50.268,114.219 40.718,114.369 40.571 C 114.846 40.101,122.986 35.946,123.663 35.827 C 124.622 35.658,125.932 35.851,126.771 36.285 M300.961 45.127 C 306.239 48.543,306.699 49.063,306.683 51.600 C 306.667 54.083,305.423 56.057,303.164 57.186 C 300.924 58.306,300.228 58.091,294.957 54.653 L 290.815 51.950 291.379 51.125 C 291.689 50.671,293.082 48.562,294.473 46.439 C 295.926 44.221,297.091 42.633,297.212 42.707 C 297.327 42.778,299.014 43.867,300.961 45.127 M324.979 70.329 C 318.226 76.136,309.505 83.619,305.600 86.958 C 301.695 90.297,298.418 93.146,298.318 93.288 C 298.166 93.503,302.130 98.410,304.591 101.056 C 304.916 101.404,309.064 98.028,318.238 89.950 C 319.876 88.508,319.698 88.475,321.452 90.550 L 322.931 92.300 322.452 93.500 C 322.188 94.160,321.445 96.050,320.800 97.700 C 320.155 99.350,318.544 103.439,317.220 106.787 C 315.237 111.798,314.855 112.928,315.056 113.186 C 316.698 115.287,322.482 121.794,322.595 121.668 C 322.678 121.575,324.573 116.443,326.807 110.262 L 330.869 99.024 331.685 99.499 C 334.717 101.265,339.069 101.629,342.644 100.414 C 353.634 96.679,357.887 84.282,351.066 75.863 C 350.249 74.854,338.163 60.752,337.501 60.036 C 337.304 59.822,334.925 61.778,324.979 70.329 M339.394 78.400 C 342.830 82.374,342.999 82.641,343.145 84.326 C 343.457 87.937,339.342 91.308,335.855 90.296 C 334.511 89.906,333.918 89.351,330.027 84.830 L 327.557 81.960 328.229 81.401 C 328.598 81.093,330.520 79.445,332.500 77.740 C 334.480 76.034,336.160 74.697,336.234 74.769 C 336.308 74.841,337.730 76.475,339.394 78.400 M53.695 79.690 C 51.938 81.812,50.500 83.669,50.500 83.818 C 50.500 84.068,89.671 116.801,89.968 116.799 C 90.193 116.798,106.900 96.598,106.900 96.327 C 106.900 96.119,100.091 90.245,99.258 89.735 C 99.100 89.638,97.260 91.694,93.886 95.743 C 91.063 99.130,88.697 101.920,88.627 101.944 C 88.557 101.968,85.119 99.178,80.987 95.744 C 63.775 81.440,57.289 76.067,57.095 75.953 C 56.983 75.887,55.453 77.568,53.695 79.690 M40.531 99.241 C 39.470 100.924,35.793 107.679,35.849 107.846 C 35.928 108.084,80.342 133.002,80.675 132.995 C 80.868 132.991,85.602 124.716,85.755 124.114 C 85.798 123.948,53.348 105.633,42.574 99.741 L 40.821 98.782 40.531 99.241 M346.100 113.006 C 333.450 119.162,323.028 124.222,322.941 124.252 C 322.853 124.282,324.680 128.220,327.002 133.003 C 329.323 137.786,331.953 143.208,332.845 145.050 C 333.737 146.893,334.530 148.400,334.607 148.400 C 334.737 148.400,343.831 144.036,343.951 143.916 C 343.981 143.885,342.430 140.635,340.503 136.692 C 338.576 132.749,337.004 129.428,337.010 129.312 C 337.015 129.195,339.012 128.131,341.447 126.947 L 345.875 124.795 348.248 129.647 C 349.553 132.316,350.854 135.018,351.138 135.650 C 351.422 136.282,351.763 136.800,351.896 136.800 C 352.187 136.800,361.200 132.446,361.200 132.306 C 361.200 132.252,359.899 129.529,358.310 126.254 C 356.720 122.980,355.482 120.239,355.560 120.163 C 355.637 120.087,357.661 119.078,360.058 117.921 L 364.415 115.817 367.022 121.158 C 368.456 124.096,369.950 127.197,370.342 128.050 C 370.735 128.903,371.131 129.600,371.224 129.600 C 371.385 129.600,380.394 125.272,380.543 125.123 C 380.640 125.026,369.350 101.798,369.210 101.807 C 369.149 101.811,358.750 106.851,346.100 113.006 M23.318 137.715 C 20.263 147.128,17.794 154.856,17.832 154.888 C 18.001 155.033,27.615 158.051,27.681 157.980 C 27.722 157.936,28.624 155.222,29.685 151.950 C 30.747 148.678,31.697 146.000,31.797 146.000 C 31.991 146.000,32.407 146.134,55.587 153.689 C 63.885 156.394,70.731 158.537,70.802 158.453 C 71.019 158.194,74.018 148.751,73.915 148.649 C 73.862 148.596,65.117 145.730,54.481 142.281 C 43.845 138.832,35.094 135.961,35.035 135.902 C 34.976 135.843,35.806 133.088,36.880 129.780 C 37.954 126.472,38.803 123.742,38.766 123.714 C 38.651 123.623,29.203 120.600,29.034 120.600 C 28.945 120.600,26.373 128.302,23.318 137.715 M364.450 145.402 C 344.488 147.478,334.503 166.347,343.707 184.600 C 345.361 187.878,344.552 187.728,350.238 185.813 C 356.211 183.801,355.813 184.028,355.058 183.069 C 348.937 175.290,350.122 163.875,357.536 159.192 C 370.270 151.150,385.025 161.026,382.012 175.575 C 381.776 176.716,381.609 177.673,381.641 177.702 C 381.726 177.778,392.202 176.866,392.283 176.776 C 392.748 176.253,392.959 170.349,392.596 168.000 C 390.317 153.236,378.712 143.919,364.450 145.402 M14.722 172.226 C 14.665 172.597,14.581 174.993,14.536 177.550 L 14.454 182.200 15.771 182.200 C 16.932 182.200,37.873 182.724,41.799 182.851 L 43.298 182.900 27.960 195.400 L 12.623 207.900 12.612 209.350 C 12.605 210.148,12.623 210.805,12.650 210.812 C 13.441 210.999,65.137 212.092,65.247 211.924 C 65.370 211.736,65.458 208.501,65.493 202.850 L 65.500 201.700 52.069 201.368 C 44.681 201.186,38.474 201.005,38.274 200.967 C 37.997 200.913,60.711 181.230,66.868 176.189 C 67.154 175.955,67.273 175.527,67.349 174.460 L 67.451 173.043 65.175 172.923 C 63.924 172.857,53.630 172.578,42.300 172.304 C 30.970 172.030,20.154 171.748,18.264 171.679 L 14.827 171.552 14.722 172.226 M384.120 190.767 C 384.059 191.280,383.858 194.130,383.674 197.100 C 383.490 200.070,383.325 202.521,383.306 202.547 C 383.275 202.591,347.240 200.176,343.750 199.897 C 342.227 199.775,342.200 199.781,342.198 200.236 C 342.198 200.491,342.064 202.500,341.901 204.700 C 341.739 206.900,341.604 209.062,341.603 209.504 L 341.600 210.308 362.118 211.699 L 382.637 213.090 382.522 214.295 C 382.235 217.291,381.761 225.627,381.871 225.738 C 381.973 225.840,392.056 226.618,392.122 226.529 C 392.154 226.485,394.412 192.649,394.459 191.500 L 394.500 190.500 390.800 190.269 C 388.765 190.142,386.455 189.992,385.666 189.936 L 384.233 189.833 384.120 190.767 M52.163 222.402 C 50.368 222.687,49.286 222.995,35.200 227.236 C 27.885 229.438,20.820 231.556,19.500 231.942 C 18.180 232.328,17.032 232.707,16.948 232.784 C 16.806 232.915,19.518 242.352,19.779 242.629 C 19.845 242.701,21.025 242.417,22.400 242.000 C 23.775 241.582,29.535 239.843,35.200 238.136 C 40.865 236.428,47.165 234.519,49.200 233.893 C 54.753 232.185,56.828 232.351,59.375 234.709 C 62.927 237.998,63.292 243.603,60.159 246.771 C 58.542 248.406,59.935 247.914,39.700 254.006 C 34.530 255.562,29.085 257.195,27.600 257.635 C 26.115 258.074,24.822 258.508,24.727 258.600 C 24.593 258.728,27.257 268.265,27.511 268.567 C 27.624 268.702,59.758 258.945,61.719 258.181 C 69.258 255.243,73.572 248.149,72.776 240.000 C 71.658 228.558,62.521 220.758,52.163 222.402 M338.698 227.250 C 338.497 227.815,336.010 237.076,336.053 237.102 C 336.079 237.117,337.180 237.416,338.500 237.765 C 342.138 238.728,384.896 250.294,385.612 250.509 C 385.918 250.601,388.779 240.712,388.521 240.455 C 388.444 240.377,339.056 227.000,338.848 227.000 C 338.815 227.000,338.747 227.113,338.698 227.250 M340.700 252.317 C 325.833 254.611,315.007 272.363,319.670 286.800 C 324.190 300.794,340.320 309.092,354.200 304.564 C 364.111 301.331,372.020 290.526,372.546 279.500 C 373.319 263.305,357.422 249.736,340.700 252.317 M349.113 263.909 C 361.901 267.615,365.604 281.886,356.084 290.776 C 344.959 301.166,325.402 288.429,330.534 274.136 C 333.549 265.741,341.096 261.586,349.113 263.909 M302.463 293.966 C 300.353 295.693,298.568 297.165,298.497 297.237 C 298.425 297.308,300.560 300.051,303.241 303.333 C 305.922 306.615,309.321 310.785,310.795 312.600 C 312.269 314.415,314.034 316.578,314.718 317.407 L 315.962 318.913 311.231 318.162 C 290.175 314.817,277.949 312.971,277.560 313.077 C 277.307 313.145,276.710 313.541,276.233 313.956 L 275.367 314.710 291.398 334.388 C 300.215 345.210,307.661 354.369,307.945 354.741 C 308.229 355.113,308.579 355.391,308.723 355.359 C 308.931 355.312,313.886 351.375,316.371 349.281 L 316.869 348.861 309.984 340.404 C 306.198 335.753,302.085 330.701,300.845 329.178 C 299.606 327.655,298.706 326.446,298.845 326.492 C 298.985 326.538,300.675 326.848,302.600 327.182 C 304.525 327.516,313.189 329.055,321.854 330.603 L 337.609 333.417 338.704 332.561 C 339.307 332.090,339.797 331.659,339.793 331.603 C 339.779 331.396,306.694 290.922,306.500 290.874 C 306.390 290.847,304.573 292.238,302.463 293.966 M78.549 302.650 C 78.498 302.788,78.021 305.894,77.489 309.554 C 76.958 313.213,76.453 316.183,76.368 316.154 C 76.283 316.124,74.127 314.300,71.577 312.100 C 69.027 309.900,66.822 308.030,66.678 307.944 C 66.452 307.810,62.400 312.829,62.400 313.242 C 62.400 313.301,65.144 314.913,68.498 316.824 C 71.852 318.736,74.575 320.361,74.548 320.436 C 74.511 320.541,68.704 325.236,64.411 328.632 L 63.921 329.019 66.511 331.602 L 69.100 334.184 73.400 328.903 C 76.638 324.927,77.755 323.682,77.922 323.861 C 78.044 323.993,79.516 326.620,81.193 329.700 C 82.871 332.780,84.352 335.415,84.484 335.555 C 84.681 335.764,88.530 333.279,90.176 331.879 C 90.218 331.844,88.395 329.592,86.125 326.875 C 83.856 324.158,82.032 321.901,82.072 321.861 C 82.113 321.821,85.173 321.355,88.873 320.827 C 92.572 320.299,95.637 319.829,95.683 319.783 C 95.851 319.616,93.694 312.803,93.472 312.801 C 93.347 312.801,90.522 313.837,87.195 315.105 C 83.867 316.373,81.109 317.375,81.065 317.332 C 80.997 317.264,82.860 311.876,84.830 306.445 C 85.605 304.307,85.778 304.501,82.092 303.377 C 78.482 302.276,78.674 302.316,78.549 302.650 M146.740 322.850 C 146.594 323.207,144.644 328.024,142.407 333.553 L 138.341 343.605 132.520 347.755 C 129.319 350.037,123.169 354.421,118.854 357.497 C 114.539 360.572,111.074 363.151,111.154 363.228 C 111.234 363.304,113.898 364.405,117.074 365.674 L 122.847 367.982 130.774 361.962 C 135.133 358.652,138.795 355.869,138.912 355.779 C 139.056 355.667,139.590 358.711,140.591 365.357 C 141.399 370.716,142.127 375.285,142.210 375.511 C 142.344 375.878,147.107 377.953,153.074 380.243 L 154.047 380.616 153.936 380.158 C 153.874 379.906,153.272 376.640,152.598 372.900 C 151.924 369.160,150.617 361.926,149.694 356.825 L 148.015 347.550 152.307 336.977 C 154.668 331.162,156.599 326.291,156.598 326.152 C 156.597 325.923,147.773 322.200,147.232 322.200 C 147.107 322.200,146.886 322.493,146.740 322.850 M246.000 328.084 C 237.832 329.995,235.726 330.596,233.244 331.722 C 211.565 341.561,216.186 375.888,239.800 380.429 C 241.518 380.759,246.912 380.755,248.800 380.423 C 250.329 380.153,265.851 376.616,265.953 376.514 C 265.984 376.483,265.102 372.552,263.994 367.779 C 259.549 348.635,254.400 326.366,254.400 326.285 C 254.400 326.129,253.940 326.227,246.000 328.084 M170.200 332.018 C 170.200 332.184,183.366 374.751,186.324 384.150 L 187.221 387.000 187.862 387.000 L 188.504 387.000 201.547 361.362 C 208.721 347.261,214.562 335.696,214.528 335.661 C 214.419 335.552,202.948 334.608,202.805 334.697 C 202.730 334.743,202.136 335.957,201.484 337.394 C 200.374 339.843,200.269 340.001,199.800 339.914 C 199.525 339.863,195.739 339.528,191.386 339.170 L 183.472 338.518 182.700 335.748 C 182.275 334.225,181.861 332.938,181.781 332.888 C 181.700 332.838,179.489 332.621,176.867 332.405 C 174.245 332.189,171.673 331.968,171.150 331.915 C 170.587 331.858,170.200 331.900,170.200 332.018 M249.973 353.717 C 251.876 361.921,253.403 368.653,253.366 368.677 C 252.945 368.951,246.867 370.089,245.465 370.157 C 229.181 370.947,224.154 346.345,239.425 340.603 C 240.083 340.355,245.895 338.846,246.307 338.815 C 246.420 338.807,248.070 345.513,249.973 353.717 M191.696 349.114 C 193.784 349.286,195.518 349.451,195.548 349.481 C 195.597 349.531,194.290 352.476,192.566 356.200 C 192.235 356.915,191.555 358.400,191.056 359.500 C 190.556 360.600,190.088 361.566,190.016 361.648 C 189.909 361.768,186.576 349.218,186.594 348.763 C 186.597 348.687,186.893 348.665,187.250 348.713 C 187.608 348.762,189.608 348.942,191.696 349.114 " stroke="none" fill="#000000" fill-rule="evenodd"></path></g></svg>